SplineFontDB: 3.2
FontName: GargouilleRegular
FullName: GargouilleRegular
FamilyName: Gargouille
Weight: Regular
Copyright: 
Version: Version 2;Fontself Maker 3.5.1
ItalicAngle: 0
UnderlinePosition: 0
UnderlineWidth: 0
Ascent: 800
Descent: 200
InvalidEm: 0
sfntRevision: 0x00010000
LayerCount: 2
Layer: 0 0 "Back" 1
Layer: 1 0 "Fore" 0
XUID: [1021 690 1522831698 27935]
StyleMap: 0x0040
FSType: 0
OS2Version: 4
OS2_WeightWidthSlopeOnly: 0
OS2_UseTypoMetrics: 0
CreationTime: 1587336329
ModificationTime: 1693954835
PfmFamily: 81
TTFWeight: 400
TTFWidth: 5
LineGap: 0
VLineGap: 0
Panose: 0 0 0 0 0 0 0 0 0 0
OS2TypoAscent: 749
OS2TypoAOffset: 0
OS2TypoDescent: -16
OS2TypoDOffset: 0
OS2TypoLinegap: 0
OS2WinAscent: 934
OS2WinAOffset: 0
OS2WinDescent: 233
OS2WinDOffset: 0
HheadAscent: 749
HheadAOffset: 0
HheadDescent: -16
HheadDOffset: 0
OS2SubXSize: 650
OS2SubYSize: 699
OS2SubXOff: 0
OS2SubYOff: 140
OS2SupXSize: 650
OS2SupYSize: 699
OS2SupXOff: 0
OS2SupYOff: 479
OS2StrikeYSize: 49
OS2StrikeYPos: 258
OS2CapHeight: 700
OS2XHeight: 507
OS2Vendor: 'XXXX'
OS2CodePages: 00000003.00000000
OS2UnicodeRanges: 80000027.00000008.00000000.00000000
Lookup: 258 0 0 "'kern' Horizontal Kerning in Latin lookup 0" { "'kern' Horizontal Kerning in Latin lookup 0 per glyph data 0"  "'kern' Horizontal Kerning in Latin lookup 0 kerning class 1"  } ['kern' ('DFLT' <'dflt' > 'latn' <'dflt' > ) ]
MarkAttachClasses: 1
DEI: 91125
KernClass2: 28 21 "'kern' Horizontal Kerning in Latin lookup 0 kerning class 1"
 21 parenright zero seven
 8 one four
 3 B R
 1 D
 1 F
 1 G
 3 H I
 1 K
 3 J O
 1 T
 26 A M N V Agrave Acircumflex
 1 Z
 1 b
 1 c
 1 e
 1 f
 1 h
 1 j
 1 l
 9 g m n u v
 5 o p w
 1 q
 1 s
 1 x
 1 y
 1 z
 13 Aacute Atilde
 10 parenright
 5 slash
 3 two
 5 seven
 8 question
 3 B E
 1 D
 5 F P R
 1 H
 1 T
 1 Z
 9 backslash
 12 bracketright
 5 c e r
 7 m n u w
 3 g o
 3 q y
 1 t
 9 braceleft
 10 braceright

StartChar: .notdef
Encoding: 65536 -1 0
Width: 527
GlyphClass: 1
Flags: W
LayerCount: 2
Fore
SplineSet
50 700 m 1
 477 700 l 1
 477 0 l 1
 50 0 l 1
 50 700 l 1
78 680 m 1
 263 371 l 1
 449 680 l 1
 78 680 l 1
251 350 m 1
 71 650 l 1
 71 49 l 1
 251 350 l 1
264 329 m 1
 79 21 l 1
 449 21 l 1
 264 329 l 1
276 350 m 1
 457 47 l 1
 457 652 l 1
 276 350 l 1
EndSplineSet
Validated: 1
EndChar

StartChar: exclam
Encoding: 33 33 5
Width: 123
GlyphClass: 1
Flags: W
LayerCount: 2
Fore
SplineSet
108.028320312 689.760742188 m 1
 107.696289062 215.153320312 l 1
 24.0419921875 166.83984375 l 1
 24.3330078125 689.760742188 l 1
 108.028320312 689.760742188 l 1
24.0009765625 -10.072265625 m 1
 24.1669921875 87.0107421875 l 1
 107.862304688 135.32421875 l 1
 107.696289062 38.4072265625 l 1
 24.0009765625 -10.072265625 l 1
EndSplineSet
Validated: 1
EndChar

StartChar: numbersign
Encoding: 35 35 6
Width: 611
GlyphClass: 1
Flags: W
LayerCount: 2
Fore
SplineSet
594.216796875 699.833984375 m 1
 528.60546875 507.163085938 l 1
 594.048828125 507.163085938 l 1
 594.048828125 432.323242188 l 1
 503.119140625 432.323242188 l 1
 447.239257812 268.216796875 l 1
 594.049804688 268.216796875 l 1
 594.049804688 193.376953125 l 1
 421.751953125 193.376953125 l 1
 355.893554688 0 l 1
 272.28125 -0 l 1
 338.139648438 193.376953125 l 1
 177.525390625 193.376953125 l 1
 111.666992188 0 l 1
 28.0546875 -0 l 1
 93.9140625 193.376953125 l 1
 15 193.376953125 l 1
 15 268.216796875 l 1
 119.401367188 268.216796875 l 1
 175.28125 432.323242188 l 1
 15 432.323242188 l 1
 15 507.163085938 l 1
 200.768554688 507.163085938 l 1
 266.377929688 699.833984375 l 1
 349.990234375 699.833984375 l 1
 284.380859375 507.163085938 l 1
 444.995117188 507.163085938 l 1
 510.604492188 699.833984375 l 1
 594.216796875 699.833984375 l 1
363.625976562 268.216796875 m 1
 419.505859375 432.323242188 l 1
 258.891601562 432.323242188 l 1
 203.01171875 268.216796875 l 1
 363.625976562 268.216796875 l 1
EndSplineSet
Validated: 1
EndChar

StartChar: dollar
Encoding: 36 36 7
Width: 291
GlyphClass: 1
Flags: W
LayerCount: 2
Fore
SplineSet
276.234375 346.008789062 m 1
 275.443359375 346.46484375 l 1
 275.443359375 149.262695312 l 1
 188.545898438 99.5771484375 l 1
 188.545898438 360.767578125 l 1
 156.53125 379.311523438 l 1
 156.53125 118.204101562 l 1
 188.545898438 99.5771484375 l 1
 156.53125 99.5771484375 l 1
 156.53125 -0.0009765625 l 1
 135.7421875 -0.0009765625 l 1
 135.7421875 99.5771484375 l 1
 102.646484375 99.5771484375 l 1
 16.20703125 149.470703125 l 1
 102.646484375 149.470703125 l 1
 135.7421875 130.26171875 l 1
 135.7421875 391.369140625 l 1
 16.9970703125 460.221679688 l 1
 16.9970703125 547.534179688 l 1
 15.9990234375 549.322265625 l 1
 15.9990234375 748.936523438 l 1
 102.896484375 798.622070312 l 1
 102.896484375 510.240234375 l 1
 135.743164062 491.197265625 l 1
 135.743164062 779.538085938 l 1
 102.896484375 798.622070312 l 1
 135.743164062 798.622070312 l 1
 135.743164062 870.509765625 l 1
 156.532226562 870.509765625 l 1
 156.532226562 798.622070312 l 1
 188.796875 798.622070312 l 1
 275.236328125 748.6875 l 1
 188.796875 748.6875 l 1
 156.532226562 767.439453125 l 1
 156.532226562 479.140625 l 1
 275.236328125 410.288085938 l 1
 275.236328125 349.002929688 l 1
 275.444335938 348.877929688 l 1
 275.444335938 347.380859375 l 1
 276.234375 346.008789062 l 1
EndSplineSet
Validated: 5
EndChar

StartChar: percent
Encoding: 37 37 8
Width: 754
GlyphClass: 1
Flags: W
LayerCount: 2
Fore
SplineSet
456.0546875 699.833984375 m 1
 539.625976562 699.833984375 l 1
 301.303710938 0 l 1
 217.732421875 0 l 1
 456.0546875 699.833984375 l 1
266.12890625 699.833984375 m 1
 266.12890625 386.462890625 l 1
 182.43359375 338.149414062 l 1
 98.6962890625 338.149414062 l 1
 182.43359375 386.462890625 l 1
 182.43359375 699.583984375 l 1
 99.1953125 651.520507812 l 1
 98.6962890625 651.520507812 l 1
 98.6962890625 338.150390625 l 1
 15.0009765625 338.275390625 l 1
 15.0009765625 651.520507812 l 1
 15.4580078125 651.520507812 l 1
 99.1953125 699.833984375 l 1
 182.890625 699.833984375 l 1
 182.599609375 699.66796875 l 1
 266.12890625 699.833984375 l 1
655.4609375 363.553710938 m 1
 738.990234375 363.719726562 l 1
 738.990234375 50.349609375 l 1
 655.294921875 1.9951171875 l 1
 571.557617188 1.9951171875 l 1
 655.294921875 50.349609375 l 1
 655.294921875 363.428710938 l 1
 572.014648438 315.365234375 l 1
 571.557617188 315.365234375 l 1
 571.557617188 1.9951171875 l 1
 487.862304688 2.1611328125 l 1
 487.862304688 315.365234375 l 1
 488.319335938 315.365234375 l 1
 572.014648438 363.719726562 l 1
 655.751953125 363.719726562 l 1
 655.4609375 363.553710938 l 1
EndSplineSet
Validated: 5
EndChar

StartChar: quotesingle
Encoding: 39 39 9
AltUni2: 002018.ffffffff.0 002019.ffffffff.0 002018.ffffffff.0 002019.ffffffff.0
Width: 117
GlyphClass: 1
Flags: W
LayerCount: 2
Fore
SplineSet
17.125 454.318359375 m 1
 100.404296875 454.318359375 l 1
 100.23828125 275.16015625 l 1
 17 227.096679688 l 1
 17.125 454.318359375 l 1
EndSplineSet
Validated: 1
EndChar

StartChar: parenleft
Encoding: 40 40 10
Width: 291
GlyphClass: 1
Flags: W
LayerCount: 2
Fore
SplineSet
144.294921875 66.5654296875 m 1
 145.001953125 66.5654296875 l 1
 260.296875 0 l 1
 145.001953125 -0 l 1
 29.70703125 66.5654296875 l 1
 29 66.5654296875 l 1
 29 867.432617188 l 1
 29.70703125 867.432617188 l 1
 145.001953125 933.998046875 l 1
 260.296875 933.998046875 l 1
 145.001953125 867.432617188 l 1
 144.294921875 867.432617188 l 1
 144.294921875 66.5654296875 l 1
EndSplineSet
Validated: 1
EndChar

StartChar: parenright
Encoding: 41 41 11
Width: 291
GlyphClass: 1
Flags: W
LayerCount: 2
Fore
SplineSet
260.588867188 867.432617188 m 1
 261.295898438 867.432617188 l 1
 261.295898438 66.5654296875 l 1
 260.588867188 66.5654296875 l 1
 145.293945312 0 l 1
 29.9990234375 -0 l 1
 145.293945312 66.5654296875 l 1
 146.000976562 66.5654296875 l 1
 146.000976562 867.432617188 l 1
 145.293945312 867.432617188 l 1
 29.9990234375 933.998046875 l 1
 145.293945312 933.998046875 l 1
 260.588867188 867.432617188 l 1
EndSplineSet
Validated: 1
EndChar

StartChar: asterisk
Encoding: 42 42 12
Width: 257
GlyphClass: 1
Flags: W
LayerCount: 2
Fore
SplineSet
241.888671875 469.453125 m 1
 163.84765625 391.454101562 l 1
 241.888671875 313.413085938 l 1
 224.176757812 258.198242188 l 1
 154.243164062 328.172851562 l 1
 154.243164062 243.520507812 l 1
 102.645507812 214 l 1
 102.6875 330.29296875 l 1
 30.55078125 258.197265625 l 1
 15.0009765625 315.408203125 l 1
 90.962890625 391.453125 l 1
 15.0009765625 467.45703125 l 1
 30.55078125 524.66796875 l 1
 102.6875 452.53125 l 1
 102.729492188 568.865234375 l 1
 154.202148438 539.38671875 l 1
 154.202148438 454.693359375 l 1
 224.176757812 524.66796875 l 1
 241.888671875 469.453125 l 1
EndSplineSet
Validated: 1
EndChar

StartChar: plus
Encoding: 43 43 13
Width: 590
GlyphClass: 1
Flags: W
LayerCount: 2
Fore
SplineSet
560.280273438 341.642578125 m 1
 517.080078125 257.532226562 l 1
 341.498046875 257.615234375 l 1
 341.581054688 48.10546875 l 1
 257.427734375 -0 l 1
 257.510742188 257.614257812 l 1
 29.998046875 257.697265625 l 1
 78.0205078125 341.517578125 l 1
 257.552734375 341.559570312 l 1
 257.594726562 578.385742188 l 1
 341.45703125 530.36328125 l 1
 341.499023438 341.600585938 l 1
 560.280273438 341.642578125 l 1
EndSplineSet
Validated: 1
EndChar

StartChar: comma
Encoding: 44 44 14
Width: 185
GlyphClass: 1
Flags: W
LayerCount: 2
Fore
SplineSet
57.654296875 -22.576171875 m 1
 157.731445312 -22.576171875 l 1
 80.23046875 -125.60546875 l 1
 13 -125.60546875 l 1
 57.654296875 -22.576171875 l 1
EndSplineSet
Validated: 1
EndChar

StartChar: hyphen
Encoding: 45 45 15
Width: 384
GlyphClass: 1
Flags: W
LayerCount: 2
Fore
SplineSet
333.171875 0 m 1
 4.9990234375 0.166015625 l 1
 53.021484375 83.986328125 l 1
 376.329101562 84.111328125 l 1
 333.171875 0 l 1
EndSplineSet
Validated: 1
EndChar

StartChar: period
Encoding: 46 46 16
Width: 146
GlyphClass: 1
Flags: W
LayerCount: 2
Fore
SplineSet
123.077148438 0.423828125 m 1
 23 0.423828125 l 1
 23 100.500976562 l 1
 123.077148438 100.500976562 l 1
 123.077148438 0.423828125 l 1
EndSplineSet
Validated: 1
EndChar

StartChar: slash
Encoding: 47 47 17
Width: 382
GlyphClass: 1
Flags: W
LayerCount: 2
Fore
SplineSet
113.612304688 0 m 1
 30 0 l 1
 268.322265625 699.833984375 l 1
 351.934570312 699.833984375 l 1
 113.612304688 0 l 1
EndSplineSet
Validated: 1
EndChar

StartChar: zero
Encoding: 48 48 18
Width: 318
GlyphClass: 1
Flags: W
LayerCount: 2
Fore
SplineSet
201.962890625 699.29296875 m 1
 288.444335938 699.500976562 l 1
 288.444335938 50.474609375 l 1
 201.962890625 0.5400390625 l 1
 119.846679688 0.5400390625 l 1
 119.763671875 -0 l 1
 115.481445312 0.5400390625 l 1
 29 0.748046875 l 1
 29 649.56640625 l 1
 115.481445312 699.500976562 l 1
 197.638671875 699.500976562 l 1
 197.680664062 699.833984375 l 1
 200.299804688 699.500976562 l 1
 201.962890625 699.500976562 l 1
 201.671875 699.334960938 l 1
 201.962890625 699.29296875 l 1
115.481445312 35.71484375 m 1
 197.305664062 696.798828125 l 1
 115.481445312 649.56640625 l 1
 115.481445312 35.71484375 l 1
201.961914062 50.43359375 m 1
 201.961914062 664.077148438 l 1
 120.178710938 3.201171875 l 1
 201.961914062 50.43359375 l 1
EndSplineSet
Validated: 1
EndChar

StartChar: one
Encoding: 49 49 19
Width: 300
GlyphClass: 1
Flags: W
HStem: -0.000976562 21G<195.595 230.004> 679.501 20G<108.868 178.16>
VStem: 143.522 86.4814<50.2666 599.59>
LayerCount: 2
Fore
SplineSet
143.522460938 699.500976562 m 1
 230.00390625 649.565429688 l 1
 230.00390625 -0.0009765625 l 1
 143.522460938 50.2666015625 l 1
 143.522460938 599.58984375 l 1
 57 649.56640625 l 1
 143.522460938 699.500976562 l 1
EndSplineSet
EndChar

StartChar: two
Encoding: 50 50 20
Width: 301
GlyphClass: 1
Flags: W
HStem: 0 21G<107 228.223> 679.667 20G<71.976 193.171 193.468 223.304>
VStem: 31.2119 76.4121<48.4004 313.409> 193 75.8906<408 649>
LayerCount: 2
Fore
SplineSet
193.564453125 49.9755859375 m 1
 280.170898438 49.9765625 l 1
 193.564453125 0 l 1
 107 0 l 1
 107.291015625 0.166015625 l 1
 31.2119140625 48.400390625 l 5
 31 332 l 5
 30.708984375 332.125 l 5
 193 408 l 1
 193.502929688 699.666992188 l 1
 269 649 l 1
 268.890625 387.350585938 l 1
 107.72265625 313.409179688 l 1
 107.624023438 0.373046875 l 1
 193.564453125 49.9755859375 l 1
193.170898438 699.66796875 m 1
 106.606445312 649.650390625 l 1
 20 649.650390625 l 1
 106.606445312 699.66796875 l 1
 193.170898438 699.66796875 l 1
EndSplineSet
EndChar

StartChar: three
Encoding: 51 51 21
Width: 302
GlyphClass: 1
Flags: W
LayerCount: 2
Fore
SplineSet
99.8974609375 473.818359375 m 1
 186.336914062 473.818359375 l 1
 272.818359375 423.883789062 l 1
 272.319335938 0 l 1
 185.879882812 49.8935546875 l 1
 186.336914062 423.883789062 l 1
 99.8974609375 473.818359375 l 1
103.59765625 649.899414062 m 1
 103.596679688 550.0703125 l 1
 17.1572265625 550.0703125 l 1
 17.1572265625 649.8984375 l 1
 103.596679688 699.791992188 l 1
 272.775390625 699.791992188 l 1
 272.775390625 525.374023438 l 1
 272.817382812 525.374023438 l 1
 186.294921875 476.146484375 l 1
 186.336914062 525.374023438 l 1
 186.336914062 697.671875 l 1
 103.59765625 649.899414062 l 1
99.4384765625 150.09375 m 1
 99.4384765625 50.265625 l 1
 185.877929688 0.3310546875 l 1
 99.4384765625 0.3310546875 l 1
 12.9990234375 50.265625 l 1
 12.9990234375 150.09375 l 1
 99.4384765625 150.09375 l 1
EndSplineSet
Validated: 1
EndChar

StartChar: four
Encoding: 52 52 22
Width: 315
GlyphClass: 1
Flags: W
LayerCount: 2
Fore
SplineSet
199.057617188 697.297851562 m 1
 285.2890625 647.48828125 l 1
 285.2890625 0.0009765625 l 1
 199.057617188 50.1015625 l 1
 199.057617188 697.297851562 l 1
98.1904296875 647.530273438 m 1
 98.60546875 398.938476562 l 1
 184.670898438 348.670898438 l 1
 98.439453125 348.670898438 l 1
 12.3740234375 398.938476562 l 1
 12 697.298828125 l 1
 98.1904296875 647.530273438 l 1
EndSplineSet
Validated: 1
EndChar

StartChar: five
Encoding: 53 53 23
Width: 302
GlyphClass: 1
Flags: W
LayerCount: 2
Fore
SplineSet
106.350585938 498.764648438 m 1
 191.252929688 475.98046875 l 1
 277.859375 425.671875 l 1
 277.360351562 0.0419921875 l 1
 190.75390625 50.1015625 l 1
 191.252929688 425.671875 l 1
 104.35546875 475.98046875 l 1
 19.49609375 498.764648438 l 1
 19.49609375 699.791992188 l 1
 192.999023438 699.791992188 l 1
 279.854492188 649.732421875 l 1
 192.999023438 649.732421875 l 1
 149.674804688 674.76171875 l 1
 106.1015625 649.732421875 l 1
 106.350585938 498.764648438 l 1
103.856445312 150.760742188 m 1
 103.856445312 50.3505859375 l 1
 190.75390625 0.291015625 l 1
 103.856445312 0.291015625 l 1
 17.0009765625 50.3505859375 l 1
 17.0009765625 150.760742188 l 1
 103.856445312 150.760742188 l 1
EndSplineSet
Validated: 1
EndChar

StartChar: six
Encoding: 54 54 24
Width: 312
GlyphClass: 1
Flags: W
LayerCount: 2
Fore
SplineSet
288.859375 650.0234375 m 1
 202.252929688 650.0234375 l 1
 115.60546875 700.041015625 l 1
 202.252929688 700.041015625 l 1
 288.859375 650.0234375 l 1
115.60546875 399.975585938 m 1
 202.25390625 449.952148438 l 1
 288.860351562 399.975585938 l 1
 288.860351562 49.767578125 l 1
 278.798828125 43.98828125 l 1
 202.212890625 -0.0009765625 l 1
 115.606445312 -0.0009765625 l 1
 29 50.0166015625 l 1
 29 650.396484375 l 1
 115.564453125 699.749023438 l 1
 115.564453125 50.0166015625 l 1
 116.354492188 49.5595703125 l 1
 197.014648438 352.951171875 l 1
 115.60546875 399.975585938 l 1
202.25390625 50.017578125 m 1
 202.25390625 341.2265625 l 1
 123.838867188 46.1923828125 l 1
 122.133789062 46.275390625 l 1
 158.888671875 25.029296875 l 1
 202.045898438 50.017578125 l 1
 202.25390625 50.017578125 l 1
EndSplineSet
Validated: 1
EndChar

StartChar: seven
Encoding: 55 55 25
Width: 353
GlyphClass: 1
Flags: W
LayerCount: 2
Fore
SplineSet
237.045898438 700 m 1
 323.610351562 700 l 1
 323.610351562 49.9765625 l 1
 237.045898438 -0 l 1
 237.045898438 700 l 1
64 650.0234375 m 1
 150.522460938 700 l 1
 237.044921875 700 l 1
 150.522460938 650.0234375 l 1
 150.522460938 550.112304688 l 1
 64 550.112304688 l 1
 64 650.0234375 l 1
EndSplineSet
Validated: 1
EndChar

StartChar: eight
Encoding: 56 56 26
Width: 316
GlyphClass: 1
Flags: W
LayerCount: 2
Fore
SplineSet
201.211914062 699.791992188 m 1
 287.735351562 649.7734375 l 1
 287.735351562 499.594726562 l 1
 201.170898438 449.868164062 l 1
 287.693359375 399.850585938 l 1
 287.693359375 49.9755859375 l 1
 201.12890625 -0.0009765625 l 1
 114.564453125 -0.0009765625 l 1
 28 49.9755859375 l 1
 28 399.850585938 l 1
 114.564453125 449.827148438 l 1
 28 499.803710938 l 1
 28 649.774414062 l 1
 114.564453125 699.791992188 l 1
 201.211914062 699.791992188 l 1
201.170898438 49.9755859375 m 1
 201.170898438 399.850585938 l 1
 157.888671875 424.838867188 l 1
 114.606445312 399.850585938 l 1
 114.606445312 49.9755859375 l 1
 157.888671875 24.9873046875 l 1
 201.170898438 49.9755859375 l 1
201.170898438 499.844726562 m 1
 201.12890625 507.12109375 l 1
 201.12890625 649.7734375 l 1
 157.846679688 674.76171875 l 1
 114.564453125 649.7734375 l 1
 114.564453125 499.802734375 l 1
 157.8046875 474.856445312 l 1
 197.469726562 497.848632812 l 1
 197.51171875 497.848632812 l 1
 200.962890625 499.844726562 l 1
 201.170898438 499.844726562 l 1
EndSplineSet
Validated: 1
EndChar

StartChar: nine
Encoding: 57 57 27
Width: 315
GlyphClass: 1
Flags: W
LayerCount: 2
Fore
SplineSet
199.211914062 699.791992188 m 1
 285.77734375 649.772460938 l 1
 285.77734375 49.6005859375 l 1
 199.212890625 0.2900390625 l 1
 199.212890625 649.7734375 l 1
 155.930664062 674.76171875 l 1
 112.814453125 649.7734375 l 1
 112.606445312 649.7734375 l 1
 112.606445312 349.95703125 l 1
 199.212890625 299.939453125 l 1
 112.606445312 249.962890625 l 1
 26 299.939453125 l 1
 26 650.064453125 l 1
 35.6455078125 655.594726562 l 1
 112.60546875 699.791992188 l 1
 199.211914062 699.791992188 l 1
112.606445312 149.96875 m 1
 112.606445312 49.974609375 l 1
 199.212890625 -0.001953125 l 1
 112.606445312 -0.001953125 l 1
 26 49.974609375 l 1
 26 149.96875 l 1
 112.606445312 149.96875 l 1
EndSplineSet
Validated: 5
EndChar

StartChar: colon
Encoding: 58 58 28
Width: 206
GlyphClass: 1
Flags: W
LayerCount: 2
Fore
SplineSet
194.405273438 409.684570312 m 1
 92 409.684570312 l 1
 92 512.08984375 l 1
 194.405273438 512.08984375 l 1
 194.405273438 409.684570312 l 1
194.405273438 3.7626953125 m 1
 92 3.7626953125 l 1
 92 106.16796875 l 1
 194.405273438 106.16796875 l 1
 194.405273438 3.7626953125 l 1
EndSplineSet
Validated: 1
EndChar

StartChar: semicolon
Encoding: 59 59 29
Width: 184
GlyphClass: 1
Flags: W
LayerCount: 2
Fore
SplineSet
72.6962890625 5.2177734375 m 1
 72.6962890625 105.294921875 l 1
 172.7734375 105.294921875 l 1
 172.7734375 5.2177734375 l 1
 95.2724609375 -97.8115234375 l 1
 28 -97.8115234375 l 1
 72.6962890625 5.2177734375 l 1
172.7734375 409.684570312 m 1
 70.3681640625 409.684570312 l 1
 70.3681640625 512.08984375 l 1
 172.7734375 512.08984375 l 1
 172.7734375 409.684570312 l 1
EndSplineSet
Validated: 1
EndChar

StartChar: less
Encoding: 60 60 30
Width: 598
GlyphClass: 1
Flags: W
LayerCount: 2
Fore
SplineSet
588.220703125 460.845703125 m 1
 127.583007812 272.083984375 l 1
 588.220703125 83.36328125 l 1
 582.108398438 -0 l 1
 32.328125 233.041992188 l 1
 30.58203125 232.334960938 l 1
 30.5400390625 233.790039062 l 1
 30 234.0390625 l 1
 30.291015625 272.083007812 l 1
 30 310.16796875 l 1
 30.5400390625 310.375976562 l 1
 30.58203125 311.873046875 l 1
 32.328125 311.125 l 1
 582.108398438 544.208984375 l 1
 588.220703125 460.845703125 l 1
EndSplineSet
Validated: 1
EndChar

StartChar: equal
Encoding: 61 61 31
Width: 519
GlyphClass: 1
Flags: W
LayerCount: 2
Fore
SplineSet
510.0078125 433.458984375 m 1
 466.849609375 349.34765625 l 1
 17.853515625 349.513671875 l 1
 65.8759765625 433.333984375 l 1
 510.0078125 433.458984375 l 1
7.9990234375 142.125 m 1
 56.0205078125 225.9453125 l 1
 500.15234375 226.0703125 l 1
 456.995117188 142 l 1
 7.9990234375 142.125 l 1
EndSplineSet
Validated: 1
EndChar

StartChar: greater
Encoding: 62 62 32
Width: 598
GlyphClass: 1
Flags: W
LayerCount: 2
Fore
SplineSet
566.9296875 272.083984375 m 1
 567.220703125 234.0390625 l 1
 566.680664062 233.790039062 l 1
 566.638671875 232.334960938 l 1
 564.892578125 233.041992188 l 1
 15.1123046875 0 l 1
 9 83.36328125 l 1
 469.637695312 272.083984375 l 1
 9 460.846679688 l 1
 15.1123046875 544.209960938 l 1
 564.892578125 311.125976562 l 1
 566.638671875 311.874023438 l 1
 566.680664062 310.376953125 l 1
 567.220703125 310.127929688 l 1
 566.9296875 272.083984375 l 1
EndSplineSet
Validated: 1
EndChar

StartChar: question
Encoding: 63 63 33
Width: 337
GlyphClass: 1
Flags: W
LayerCount: 2
Fore
SplineSet
155.0234375 -38.697265625 m 1
 155.189453125 57.8876953125 l 1
 238.469726562 105.951171875 l 1
 238.303710938 9.4912109375 l 1
 155.0234375 -38.697265625 l 1
320.79296875 610.454101562 m 1
 320.833007812 422.897460938 l 1
 320.875 422.897460938 l 1
 238.80078125 375.499023438 l 1
 238.551757812 375.499023438 l 1
 238.34375 196.340820312 l 1
 155.147460938 148.27734375 l 1
 155.272460938 375.499023438 l 1
 155.521484375 375.499023438 l 1
 237.63671875 422.897460938 l 1
 237.553710938 422.897460938 l 1
 237.553710938 610.828125 l 1
 154.939453125 658.517578125 l 1
 238.219726562 658.517578125 l 1
 321.5 610.454101562 l 1
 320.79296875 610.454101562 l 1
154.938476562 658.392578125 m 1
 217.512695312 622.262695312 l 1
 113.40234375 562.182617188 l 1
 29.998046875 610.329101562 l 1
 113.485351562 658.392578125 l 1
 154.938476562 658.392578125 l 1
EndSplineSet
Validated: 1
EndChar

StartChar: at
Encoding: 64 64 34
Width: 644
GlyphClass: 1
Flags: W
LayerCount: 2
Fore
SplineSet
449.26171875 474.96484375 m 1
 449.26171875 61.765625 l 1
 532.375 61.765625 l 1
 449.26171875 13.78515625 l 1
 449.26171875 11.5400390625 l 1
 364.817382812 11.5400390625 l 1
 364.817382812 12.9951171875 l 1
 363.528320312 12.9951171875 l 1
 364.817382812 13.78515625 l 1
 364.817382812 60.7265625 l 1
 280.831054688 12.2470703125 l 1
 279.916015625 12.2470703125 l 1
 279.916015625 11.4990234375 l 1
 195.471679688 11.4990234375 l 1
 195.471679688 255.684570312 l 1
 279.916015625 255.684570312 l 1
 279.916015625 60.4775390625 l 1
 280.831054688 60.9765625 l 1
 364.817382812 60.9765625 l 1
 364.817382812 523.40234375 l 1
 449.26171875 474.96484375 l 1
280.374023438 474.672851562 m 1
 280.374023438 377.173828125 l 1
 195.9296875 377.173828125 l 1
 195.9296875 474.672851562 l 1
 280.374023438 523.401367188 l 1
 364.818359375 523.401367188 l 1
 280.374023438 474.672851562 l 1
279.958007812 255.80859375 m 1
 195.513671875 255.80859375 l 1
 279.958007812 304.537109375 l 1
 364.40234375 304.537109375 l 1
 279.958007812 255.80859375 l 1
533.622070312 598.033203125 m 1
 618.025390625 549.3046875 l 1
 618.025390625 110.827148438 l 1
 533.623046875 61.765625 l 1
 533.623046875 549.3046875 l 1
 454.666992188 594.874023438 l 1
 190.8984375 594.874023438 l 1
 111.942382812 549.3046875 l 1
 111.443359375 549.3046875 l 1
 111.443359375 -37.271484375 l 1
 111.942382812 -37.271484375 l 1
 196.38671875 -86 l 1
 111.942382812 -86 l 1
 27.5400390625 -37.271484375 l 1
 27 -37.271484375 l 1
 27 549.3046875 l 1
 27.5400390625 549.3046875 l 1
 111.942382812 598.033203125 l 1
 533.622070312 598.033203125 l 1
EndSplineSet
Validated: 5
EndChar

StartChar: A
Encoding: 65 65 35
Width: 318
GlyphClass: 1
Flags: W
LayerCount: 2
Fore
SplineSet
116.231445312 697.23046875 m 1
 116.231445312 348.809570312 l 1
 202.462890625 299 l 1
 116.231445312 299 l 1
 116.231445312 0.306640625 l 1
 30 0.306640625 l 1
 30 697.23046875 l 1
 116.231445312 697.23046875 l 1
288.612304688 647.502929688 m 1
 288.6953125 647.501953125 l 1
 288.6953125 0.3056640625 l 1
 202.463867188 0.3056640625 l 1
 202.463867188 647.4609375 l 1
 116.232421875 697.229492188 l 1
 202.463867188 697.229492188 l 1
 288.612304688 647.502929688 l 1
EndSplineSet
Validated: 1
EndChar

StartChar: B
Encoding: 66 66 36
Width: 340
GlyphClass: 1
Flags: W
VStem: 53 87<48 671> 227 86<-2 295 394 621>
LayerCount: 2
Fore
SplineSet
313 621 m 1
 313 394 l 1
 227 345 l 1
 227 394 l 1
 227 621 l 1
 140 671 l 1
 227 671 l 1
 313 621 l 1
140 48 m 1
 227 -2 l 1
 140 -2 l 1
 54 48 l 1
 53 48 l 1
 53 671 l 1
 10 696 l 1
 97 696 l 1
 140 671 l 1
 140 48 l 1
227 295 m 1
 140 345 l 1
 227 345 l 1
 313 295 l 1
 313 -2 l 1
 227 -2 l 1
 227 295 l 1
EndSplineSet
Validated: 5
EndChar

StartChar: C
Encoding: 67 67 37
Width: 271
GlyphClass: 1
Flags: W
LayerCount: 2
Fore
SplineSet
111.8203125 298.41796875 m 1
 111.985351562 0.3486328125 l 1
 27.9990234375 48.37109375 l 1
 28.1240234375 326.067382812 l 1
 28.166015625 326.067382812 l 1
 28.2080078125 652.03515625 l 1
 112.194335938 700.057617188 l 1
 111.8203125 298.41796875 l 1
111.985351562 0.306640625 m 1
 195.306640625 48.412109375 l 1
 278.669921875 48.412109375 l 1
 195.306640625 0.306640625 l 1
 111.985351562 0.306640625 l 1
278.877929688 651.952148438 m 1
 195.556640625 651.952148438 l 1
 112.193359375 700.098632812 l 1
 195.556640625 700.098632812 l 1
 278.877929688 651.952148438 l 1
EndSplineSet
Validated: 1
EndChar

StartChar: D
Encoding: 68 68 38
Width: 339
GlyphClass: 1
Flags: W
HStem: 1 21G<192.045 310.166> 680.003 20G<18.001 135.784>
VStem: 59.7451 83.4873<49.1885 675.68> 226.679 83.4873<49.1885 627.449>
LayerCount: 2
Fore
SplineSet
310.166015625 627.44921875 m 1
 310.166015625 1.2080078125 l 1
 309.833007812 1.2080078125 l 1
 310.166015625 1 l 1
 226.678710938 1 l 1
 143.232421875 49.1884765625 l 1
 226.678710938 49.1884765625 l 1
 226.678710938 627.44921875 l 1
 143.232421875 675.637695312 l 1
 226.678710938 675.637695312 l 1
 310.166015625 627.44921875 l 1
143.232421875 675.6796875 m 1
 143.232421875 49.1884765625 l 1
 59.7451171875 49.1884765625 l 1
 59.7451171875 675.6796875 l 1
 18.0009765625 700.002929688 l 1
 101.48828125 700.002929688 l 1
 139.989257812 677.55078125 l 1
 143.232421875 675.6796875 l 1
EndSplineSet
Validated: 5
EndChar

StartChar: E
Encoding: 69 69 39
Width: 259
GlyphClass: 1
Flags: W
LayerCount: 2
Fore
SplineSet
219.037109375 24.98828125 m 1
 262.154296875 0.0009765625 l 1
 132.390625 0.0009765625 l 1
 89.150390625 24.9892578125 l 1
 89.275390625 24.9892578125 l 1
 46.1591796875 50.060546875 l 1
 46.1591796875 671.936523438 l 1
 46.0341796875 671.936523438 l 1
 3.0009765625 697.173828125 l 1
 175.46484375 697.173828125 l 1
 261.696289062 647.405273438 l 1
 175.46484375 647.405273438 l 1
 132.348632812 672.268554688 l 1
 131.80859375 672.268554688 l 1
 132.390625 671.935546875 l 1
 132.348632812 671.935546875 l 1
 132.348632812 397.232421875 l 1
 159.125 397.232421875 l 1
 245.356445312 347.463867188 l 1
 132.556640625 347.463867188 l 1
 132.348632812 347.588867188 l 1
 132.348632812 50.0595703125 l 1
 175.505859375 24.98828125 l 1
 219.037109375 24.98828125 l 1
EndSplineSet
Validated: 1
EndChar

StartChar: F
Encoding: 70 70 40
Width: 290
GlyphClass: 1
Flags: W
LayerCount: 2
Fore
SplineSet
129.9296875 399.807617188 m 1
 186.18359375 399.807617188 l 1
 272.873046875 349.748046875 l 1
 130.053710938 349.748046875 l 1
 129.928710938 349.831054688 l 1
 129.970703125 49.5166015625 l 1
 43.28125 -1 l 1
 43.28125 674.926757812 l 1
 43.2392578125 674.926757812 l 1
 -0.0009765625 700.040039062 l 1
 174.125976562 700.040039062 l 1
 174.208984375 699.95703125 l 1
 216.327148438 699.915039062 l 1
 302.849609375 649.938476562 l 1
 216.327148438 649.938476562 l 1
 172.254882812 674.926757812 l 1
 129.970703125 674.926757812 l 1
 129.887695312 671.184570312 l 1
 129.9296875 399.807617188 l 1
EndSplineSet
Validated: 1
EndChar

StartChar: G
Encoding: 71 71 41
Width: 311
GlyphClass: 1
Flags: W
LayerCount: 2
Fore
SplineSet
114.606445312 400.059570312 m 1
 201.213867188 450.077148438 l 1
 287.861328125 400.059570312 l 1
 287.861328125 49.7265625 l 1
 201.213867188 0 l 1
 114.607421875 0 l 1
 28.0009765625 49.9765625 l 1
 28.0009765625 650.440429688 l 1
 114.607421875 699.79296875 l 1
 114.607421875 49.9765625 l 1
 120.095703125 46.81640625 l 1
 157.84765625 25.029296875 l 1
 195.516601562 46.81640625 l 1
 201.212890625 50.142578125 l 1
 201.212890625 350.083007812 l 1
 114.606445312 400.059570312 l 1
201.213867188 550.237304688 m 1
 201.213867188 649.774414062 l 1
 114.607421875 699.791992188 l 1
 201.213867188 699.791992188 l 1
 287.861328125 649.774414062 l 1
 287.4453125 649.774414062 l 1
 287.4453125 550.237304688 l 1
 201.213867188 550.237304688 l 1
EndSplineSet
Validated: 5
EndChar

StartChar: H
Encoding: 72 72 42
Width: 336
GlyphClass: 1
Flags: W
LayerCount: 2
Fore
SplineSet
132.137695312 649.583007812 m 1
 132.137695312 347.896484375 l 1
 218.78515625 297.87890625 l 1
 132.137695312 297.87890625 l 1
 132.137695312 49.2861328125 l 1
 45.240234375 -0.7734375 l 1
 45.4482421875 49.2861328125 l 1
 45.4482421875 649.583007812 l 1
 2 674.737304688 l 1
 88.7724609375 674.737304688 l 1
 132.137695312 649.583007812 l 1
218.78515625 649.666992188 m 1
 305.682617188 699.685546875 l 1
 305.474609375 649.66796875 l 1
 305.474609375 0.267578125 l 1
 218.78515625 0.5166015625 l 1
 218.78515625 649.666992188 l 1
EndSplineSet
Validated: 5
EndChar

StartChar: I
Encoding: 73 73 43
Width: 158
GlyphClass: 1
Flags: W
LayerCount: 2
Fore
SplineSet
29.3330078125 649.69140625 m 1
 116.313476562 699.79296875 l 1
 116.10546875 649.692382812 l 1
 116.5625 0.0009765625 l 1
 29 0.0009765625 l 1
 29.2080078125 50.1015625 l 1
 29.3330078125 50.1015625 l 1
 29.3330078125 649.69140625 l 1
EndSplineSet
Validated: 1
EndChar

StartChar: J
Encoding: 74 74 44
Width: 314
GlyphClass: 1
Flags: W
HStem: 0 21G<76.6573 232.271> 679.792 20G<150.106 271.53>
VStem: 25 86.3154<49.8096 225.101> 197.838 86.3164<50.0176 672.601>
LayerCount: 2
Fore
SplineSet
236.421875 699.791992188 m 1
 284.154296875 672.600585938 l 1
 284.154296875 49.8095703125 l 1
 272.595703125 43.2822265625 l 1
 197.630859375 0 l 1
 111.315429688 0 l 1
 25 49.8095703125 l 1
 25 225.100585938 l 1
 111.315429688 225.100585938 l 1
 111.315429688 49.8095703125 l 1
 154.47265625 24.904296875 l 1
 192.18359375 46.69140625 l 1
 197.837890625 50.017578125 l 1
 197.837890625 672.600585938 l 1
 197.712890625 672.600585938 l 1
 150.106445312 699.791992188 l 1
 236.421875 699.791992188 l 1
EndSplineSet
Validated: 1
EndChar

StartChar: K
Encoding: 75 75 45
Width: 373
GlyphClass: 1
Flags: W
LayerCount: 2
Fore
SplineSet
291.75 448.454101562 m 1
 205.143554688 399.143554688 l 1
 205.185546875 448.454101562 l 1
 205.143554688 700.165039062 l 1
 291.75 700.165039062 l 1
 378.314453125 650.188476562 l 1
 291.75 650.188476562 l 1
 291.75 448.454101562 l 1
117.495117188 700.021484375 m 1
 115.60546875 0.1875 l 1
 28.9990234375 0.4208984375 l 1
 30.888671875 700.254882812 l 1
 117.495117188 700.021484375 l 1
291.749023438 349.125 m 1
 291.749023438 48.9765625 l 1
 378.313476562 -1 l 1
 291.749023438 -1 l 1
 248.258789062 23.98828125 l 1
 205.142578125 48.9765625 l 1
 205.184570312 349.125 l 1
 118.578125 399.142578125 l 1
 205.184570312 399.142578125 l 1
 291.749023438 349.125 l 1
EndSplineSet
Validated: 1
EndChar

StartChar: L
Encoding: 76 76 46
Width: 264
GlyphClass: 1
Flags: W
LayerCount: 2
Fore
SplineSet
209.452148438 101.036132812 m 1
 296.142578125 50.9775390625 l 1
 209.328125 1.0009765625 l 1
 166.294921875 1.0009765625 l 1
 166.00390625 1.1669921875 l 1
 81.5595703125 1.1669921875 l 1
 12 51.1435546875 l 1
 81.4345703125 51.1435546875 l 1
 81.4345703125 675.680664062 l 1
 38.15234375 700.91796875 l 1
 124.716796875 700.91796875 l 1
 167.999023438 675.680664062 l 1
 167.999023438 77.087890625 l 1
 209.452148438 101.036132812 l 1
EndSplineSet
Validated: 1
EndChar

StartChar: M
Encoding: 77 77 47
Width: 529
GlyphClass: 1
Flags: W
LayerCount: 2
Fore
SplineSet
499.161132812 646.157226562 m 1
 499.369140625 0.2080078125 l 1
 405.528320312 0 l 1
 405.3203125 700.333007812 l 1
 499.161132812 646.157226562 l 1
265.12109375 673.224609375 m 1
 312.020507812 700.333007812 l 1
 405.3203125 700.333007812 l 1
 312.020507812 646.157226562 l 1
 312.228515625 0.2080078125 l 1
 218.387695312 0 l 1
 218.1796875 700.333007812 l 1
 265.12109375 673.224609375 l 1
77.439453125 672.93359375 m 1
 124.879882812 700.333007812 l 1
 218.1796875 700.333007812 l 1
 123.83984375 646.157226562 l 1
 124.047851562 0.2080078125 l 1
 30.20703125 0.0419921875 l 1
 29.9990234375 700.333007812 l 1
 77.439453125 672.93359375 l 1
EndSplineSet
Validated: 5
EndChar

StartChar: N
Encoding: 78 78 48
Width: 322
GlyphClass: 1
Flags: W
LayerCount: 2
Fore
SplineSet
74.4052734375 672.803710938 m 1
 118.14453125 698.415039062 l 1
 204.791992188 698.415039062 l 1
 127.208007812 653.84375 l 1
 117.146484375 648.106445312 l 1
 117.229492188 -1.79296875 l 1
 30.0830078125 -1.958984375 l 1
 30 698.415039062 l 1
 74.4052734375 672.803710938 l 1
291.938476562 648.106445312 m 1
 292.021484375 -1.79296875 l 1
 204.875 -2.0009765625 l 1
 204.791992188 698.415039062 l 1
 291.938476562 648.106445312 l 1
EndSplineSet
Validated: 5
EndChar

StartChar: O
Encoding: 79 79 49
Width: 318
GlyphClass: 1
Flags: W
LayerCount: 2
Fore
SplineSet
202.00390625 699.43359375 m 1
 115.522460938 649.5 l 1
 115.522460938 0.265625 l 1
 29 0.5146484375 l 1
 29 649.499023438 l 1
 115.522460938 699.43359375 l 1
 202.00390625 699.43359375 l 1
202.00390625 699.2265625 m 1
 288.526367188 699.434570312 l 1
 288.526367188 50.2421875 l 1
 202.00390625 0.265625 l 1
 115.522460938 0.265625 l 1
 202.00390625 50.2421875 l 1
 202.00390625 699.2265625 l 1
EndSplineSet
Validated: 5
EndChar

StartChar: P
Encoding: 80 80 50
Width: 313
GlyphClass: 1
Flags: W
LayerCount: 2
Fore
SplineSet
303.557617188 624.786132812 m 1
 303.599609375 300.024414062 l 1
 216.952148438 300.024414062 l 1
 130.3046875 350.041992188 l 1
 216.952148438 350.041992188 l 1
 216.91015625 624.911132812 l 1
 130.262695312 674.970703125 l 1
 216.91015625 674.970703125 l 1
 299.025390625 627.572265625 l 1
 303.557617188 624.911132812 l 1
 303.557617188 624.786132812 l 1
0 699.79296875 m 1
 86.771484375 699.79296875 l 1
 130.095703125 674.638671875 l 1
 130.095703125 0.0009765625 l 1
 43.4482421875 0.0009765625 l 1
 43.4482421875 674.638671875 l 1
 0 699.79296875 l 1
EndSplineSet
Validated: 1
EndChar

StartChar: Q
Encoding: 81 81 51
Width: 322
GlyphClass: 1
Flags: W
LayerCount: 2
Fore
SplineSet
116.645507812 649.321289062 m 1
 116.645507812 51.1865234375 l 1
 204.291015625 0.5869140625 l 1
 116.645507812 0.5869140625 l 1
 29 0.8359375 l 1
 29 649.321289062 l 1
 116.645507812 699.920898438 l 1
 204.291015625 699.920898438 l 1
 126.998046875 655.266601562 l 1
 116.645507812 649.321289062 l 1
204.291015625 699.713867188 m 1
 291.936523438 699.921875 l 1
 291.936523438 -211.999023438 l 1
 204.291015625 -161.399414062 l 1
 204.291015625 699.713867188 l 1
EndSplineSet
Validated: 5
EndChar

StartChar: R
Encoding: 82 82 52
Width: 347
GlyphClass: 1
Flags: W
HStem: 0.182617 21G<61.5723 96.2013 277.257 311.869> 680.1 20G<17.001 134.638>
VStem: 61.7803 83.3633<48.3291 673.946> 228.506 83.3633<49.0361 288.938 384.94 626.132>
LayerCount: 2
Fore
SplineSet
228.629882812 337.001953125 m 1
 311.869140625 288.938476562 l 1
 311.869140625 0.1826171875 l 1
 270.208007812 24.255859375 l 1
 227.258789062 49.0361328125 l 1
 228.505859375 288.938476562 l 1
 145.142578125 337.084960938 l 1
 228.172851562 337.084960938 l 1
 228.172851562 626.131835938 l 1
 227.83984375 626.131835938 l 1
 145.141601562 673.946289062 l 1
 227.83984375 674.237304688 l 1
 311.203125 626.131835938 l 1
 311.203125 384.940429688 l 1
 228.629882812 337.001953125 l 1
100.48828125 700.099609375 m 1
 145.143554688 673.947265625 l 1
 145.143554688 48.3291015625 l 1
 144.935546875 48.3291015625 l 1
 61.572265625 0.1826171875 l 1
 61.572265625 48.37109375 l 1
 61.7802734375 48.37109375 l 1
 61.7802734375 673.947265625 l 1
 17.0009765625 700.099609375 l 1
 100.48828125 700.099609375 l 1
EndSplineSet
Validated: 5
EndChar

StartChar: S
Encoding: 83 83 53
Width: 307
GlyphClass: 1
Flags: W
HStem: 0.264648 21G<83.1053 203.755 203.755 238.709> 680.1 20G<82.997 117.98 117.98 238.617>
VStem: 31 86.9805<411.634 650.372> 203.755 86.9805<50.0332 261.871>
LayerCount: 2
Fore
SplineSet
290.485351562 650.165039062 m 1
 203.962890625 650.165039062 l 1
 117.98046875 700.099609375 l 1
 203.962890625 700.099609375 l 1
 290.485351562 650.165039062 l 1
290.52734375 249.98046875 m 1
 290.735351562 50.033203125 l 1
 203.754882812 0.2646484375 l 1
 203.754882812 261.87109375 l 1
 31 362.28125 l 1
 31 650.372070312 l 1
 117.98046875 700.098632812 l 1
 117.98046875 411.633789062 l 1
 290.52734375 311.348632812 l 1
 290.52734375 249.98046875 l 1
31.2080078125 50.2412109375 m 1
 117.73046875 50.2412109375 l 1
 203.754882812 0.2646484375 l 1
 117.73046875 0.2646484375 l 1
 31.2080078125 50.2412109375 l 1
EndSplineSet
Validated: 5
EndChar

StartChar: T
Encoding: 84 84 54
Width: 422
GlyphClass: 1
Flags: W
VStem: 169.047 85.3174<-1 650.438>
LayerCount: 2
Fore
SplineSet
362.215820312 698.251953125 m 1
 445.206054688 650.478515625 l 1
 359.763671875 601.16796875 l 1
 264.384765625 656.216796875 l 1
 254.364257812 650.4375 l 1
 254.364257812 -1 l 1
 169.046875 -1 l 1
 169.046875 650.4375 l 1
 168.963867188 650.4375 l 1
 158.361328125 656.549804688 l 1
 62.400390625 601.168945312 l 1
 -23 650.479492188 l 1
 59.947265625 698.251953125 l 1
 362.215820312 698.251953125 l 1
EndSplineSet
Validated: 1
EndChar

StartChar: U
Encoding: 85 85 55
Width: 312
GlyphClass: 1
Flags: W
LayerCount: 2
Fore
SplineSet
114.028320312 700.166015625 m 1
 114.028320312 48.521484375 l 1
 198.056640625 48.521484375 l 1
 114.028320312 0 l 1
 30 -0 l 1
 30.3740234375 0.2490234375 l 1
 30 0.2490234375 l 1
 30 700.166015625 l 1
 114.028320312 700.166015625 l 1
282.084960938 48.521484375 m 1
 198.056640625 48.521484375 l 1
 198.056640625 700.041992188 l 1
 282.084960938 700.041992188 l 1
 282.084960938 48.521484375 l 1
EndSplineSet
Validated: 5
EndChar

StartChar: V
Encoding: 86 86 56
Width: 310
GlyphClass: 1
Flags: W
VStem: 28.999 83.9043<365.72 652.979> 196.807 83.9023<171.844 653.062>
LayerCount: 2
Fore
SplineSet
196.848632812 701.500976562 m 1
 280.708984375 653.0625 l 1
 280.708984375 1.9990234375 l 1
 196.805664062 50.6865234375 l 1
 28.9990234375 365.719726562 l 1
 29.041015625 701.416992188 l 1
 112.903320312 652.979492188 l 1
 112.903320312 365.719726562 l 1
 196.806640625 171.84375 l 1
 196.848632812 701.500976562 l 1
EndSplineSet
Validated: 1
EndChar

StartChar: W
Encoding: 87 87 57
Width: 529
GlyphClass: 1
Flags: W
LayerCount: 2
Fore
SplineSet
29 700.125 m 1
 122.840820312 700.333007812 l 1
 123.048828125 0.0419921875 l 1
 29.2080078125 54.2177734375 l 1
 29 700.125 l 1
216.140625 700.125 m 1
 309.981445312 700.333007812 l 1
 310.147460938 0.0419921875 l 1
 263.248046875 27.109375 l 1
 216.348632812 0.0419921875 l 1
 123.048828125 0.0419921875 l 1
 216.348632812 54.2177734375 l 1
 216.140625 700.125 l 1
498.161132812 700.333007812 m 1
 498.369140625 0.0009765625 l 1
 450.887695312 27.400390625 l 1
 403.489257812 0.0419921875 l 1
 310.147460938 0.0419921875 l 1
 404.528320312 54.2177734375 l 1
 404.3203125 700.125 l 1
 498.161132812 700.333007812 l 1
EndSplineSet
Validated: 5
EndChar

StartChar: X
Encoding: 88 88 58
Width: 317
GlyphClass: 1
Flags: W
LayerCount: 2
Fore
SplineSet
286.9453125 345.484375 m 1
 287.817382812 -3.642578125 l 1
 201.668945312 46.083984375 l 1
 200.795898438 345.359375 l 1
 114.85546875 295.7578125 l 1
 114.85546875 -3.517578125 l 1
 28.748046875 46.208984375 l 1
 28.6650390625 295.7578125 l 1
 28.6650390625 295.840820312 l 1
 28.873046875 295.840820312 l 1
 114.85546875 345.484375 l 1
 28.873046875 345.484375 l 1
 28 694.653320312 l 1
 114.107421875 644.884765625 l 1
 115.022460938 345.609375 l 1
 201.004882812 395.252929688 l 1
 201.461914062 645.7578125 l 1
 287.569335938 695.484375 l 1
 287.1953125 395.252929688 l 1
 201.004882812 345.484375 l 1
 286.9453125 345.484375 l 1
EndSplineSet
Validated: 1
EndChar

StartChar: Y
Encoding: 89 89 59
Width: 281
GlyphClass: 1
Flags: W
LayerCount: 2
Fore
SplineSet
183.334960938 649.874023438 m 1
 269.8984375 699.891601562 l 1
 269.025390625 348.9765625 l 1
 183.250976562 348.9765625 l 1
 182.377929688 48.994140625 l 1
 95.8134765625 -1.0234375 l 1
 96.6865234375 349.891601562 l 1
 96.021484375 349.891601562 l 1
 9.3740234375 399.909179688 l 1
 9 701.637695312 l 1
 95.564453125 651.620117188 l 1
 96.021484375 399.909179688 l 1
 182.419921875 349.974609375 l 1
 183.334960938 649.874023438 l 1
EndSplineSet
Validated: 1
EndChar

StartChar: Z
Encoding: 90 90 60
Width: 332
GlyphClass: 1
Flags: W
LayerCount: 2
Fore
SplineSet
332.284179688 48.396484375 m 1
 248.46484375 0.125 l 1
 210.337890625 0.125 l 1
 210.50390625 0 l 1
 123.274414062 -0 l 1
 39.703125 48.271484375 l 1
 40.41015625 48.271484375 l 1
 40.3271484375 290.3359375 l 1
 40.3271484375 290.418945312 l 1
 40.53515625 290.418945312 l 1
 123.149414062 338.150390625 l 1
 82.154296875 362.265625 l 1
 123.939453125 386.837890625 l 1
 165.392578125 362.514648438 l 1
 207.510742188 386.837890625 l 1
 206.346679688 386.837890625 l 1
 206.346679688 651.89453125 l 1
 186.47265625 663.370117188 l 1
 183.395507812 661.790039062 l 1
 81.6962890625 603.08203125 l 1
 -1.9990234375 651.395507812 l 1
 81.8212890625 699.666992188 l 1
 207.01171875 699.791992188 l 1
 289.875976562 651.520507812 l 1
 289.958984375 386.837890625 l 1
 291.123046875 386.837890625 l 1
 207.510742188 338.56640625 l 1
 206.845703125 338.192382812 l 1
 248.672851562 313.620117188 l 1
 206.346679688 289.172851562 l 1
 164.51953125 313.787109375 l 1
 123.939453125 290.336914062 l 1
 123.939453125 47.8984375 l 1
 143.979492188 36.2978515625 l 1
 144.104492188 36.380859375 l 1
 144.0625 36.380859375 l 1
 145.2265625 37.0458984375 l 1
 145.2265625 37.087890625 l 1
 145.268554688 37.087890625 l 1
 248.588867188 96.7099609375 l 1
 332.284179688 48.396484375 l 1
EndSplineSet
Validated: 1
EndChar

StartChar: bracketleft
Encoding: 91 91 61
Width: 289
GlyphClass: 1
Flags: W
LayerCount: 2
Fore
SplineSet
209.19921875 83.23828125 m 1
 257.221679688 0.0009765625 l 1
 145.294921875 0.04296875 l 1
 145.294921875 0.0009765625 l 1
 30 0.0009765625 l 1
 30 897.993164062 l 1
 145.294921875 897.993164062 l 1
 145.294921875 897.951171875 l 1
 258.884765625 897.993164062 l 1
 210.862304688 814.754882812 l 1
 145.294921875 814.712890625 l 1
 145.294921875 83.2802734375 l 1
 209.19921875 83.23828125 l 1
EndSplineSet
Validated: 1
EndChar

StartChar: backslash
Encoding: 92 92 62
Width: 382
GlyphClass: 1
Flags: W
LayerCount: 2
Fore
SplineSet
351.935546875 0 m 1
 268.323242188 0 l 1
 30.0009765625 699.833984375 l 1
 113.61328125 699.833984375 l 1
 351.935546875 0 l 1
EndSplineSet
Validated: 1
EndChar

StartChar: bracketright
Encoding: 93 93 63
Width: 289
GlyphClass: 1
Flags: W
LayerCount: 2
Fore
SplineSet
143.631835938 897.9921875 m 1
 258.884765625 897.991210938 l 1
 258.884765625 -0.0009765625 l 1
 143.631835938 -0.0009765625 l 1
 143.631835938 0.08203125 l 1
 30 -0.0009765625 l 1
 78.0634765625 83.2373046875 l 1
 143.630859375 83.279296875 l 1
 143.630859375 814.711914062 l 1
 79.7265625 814.75390625 l 1
 31.6630859375 897.9921875 l 1
 143.631835938 897.950195312 l 1
 143.631835938 897.9921875 l 1
EndSplineSet
Validated: 1
EndChar

StartChar: underscore
Encoding: 95 95 64
Width: 600
GlyphClass: 1
Flags: W
LayerCount: 2
Fore
SplineSet
589.009765625 0 m 1
 10 0 l 1
 10 74.83984375 l 1
 589.009765625 74.83984375 l 1
 589.009765625 0 l 1
EndSplineSet
Validated: 1
EndChar

StartChar: grave
Encoding: 96 96 65
Width: 311
GlyphClass: 1
Flags: W
LayerCount: 2
Fore
SplineSet
30 758.51171875 m 1
 155.60546875 758.51171875 l 1
 281.2109375 686 l 1
 155.60546875 686 l 1
 30 758.51171875 l 1
EndSplineSet
Validated: 1
EndChar

StartChar: a
Encoding: 97 97 66
Width: 348
GlyphClass: 1
Flags: W
LayerCount: 2
Fore
SplineSet
272.377929688 48.6044921875 m 5
 355.990234375 48.603515625 l 5
 272.377929688 0.33203125 l 5
 272.377929688 0.0830078125 l 5
 188.723632812 0.0830078125 l 5
 188.723632812 48.7705078125 l 5
 105.52734375 0.748046875 l 5
 104.654296875 0.748046875 l 5
 104.654296875 0 l 5
 21 -0 l 5
 21 241.856445312 l 1
 21.0419921875 241.856445312 l 1
 21.0419921875 242.022460938 l 1
 104.654296875 290.293945312 l 1
 188.30859375 290.293945312 l 1
 112.88671875 246.720703125 l 1
 104.654296875 242.022460938 l 1
 104.654296875 48.5205078125 l 5
 105.52734375 49.01953125 l 5
 188.723632812 49.01953125 l 5
 188.723632812 507.080078125 l 1
 272.377929688 459.099609375 l 1
 272.377929688 48.6044921875 l 5
105.069335938 458.807617188 m 1
 105.069335938 362.22265625 l 1
 21.45703125 362.22265625 l 1
 21.45703125 458.807617188 l 1
 105.069335938 507.079101562 l 1
 188.723632812 507.079101562 l 1
 105.069335938 458.807617188 l 1
EndSplineSet
Validated: 5
EndChar

StartChar: b
Encoding: 98 98 67
Width: 305
GlyphClass: 1
Flags: W
LayerCount: 2
Fore
SplineSet
278.12890625 458.311523438 m 1
 278.129882812 1.4990234375 l 1
 193.768554688 1.4990234375 l 1
 110.48828125 49.6044921875 l 1
 110.48828125 1 l 1
 27.0009765625 1 l 1
 27.0009765625 652.3125 l 1
 110.48828125 700.209960938 l 1
 110.48828125 49.6875 l 1
 193.768554688 49.6875 l 1
 194.641601562 49.1884765625 l 1
 194.641601562 432.159179688 l 1
 194.599609375 458.311523438 l 1
 178.259765625 467.874023438 l 1
 110.48828125 507.5390625 l 1
 193.975585938 507.5390625 l 1
 261.747070312 467.874023438 l 1
 278.12890625 458.311523438 l 1
EndSplineSet
Validated: 5
EndChar

StartChar: c
Encoding: 99 99 68
Width: 271
GlyphClass: 1
Flags: W
LayerCount: 2
Fore
SplineSet
107.529296875 507.504882812 m 1
 107.529296875 0.2998046875 l 1
 24 49.0283203125 l 1
 24 458.983398438 l 1
 107.529296875 507.504882812 l 1
107.529296875 0.2998046875 m 1
 191.016601562 48.5302734375 l 1
 274.545898438 48.5302734375 l 1
 191.016601562 0.2998046875 l 1
 107.529296875 0.2998046875 l 1
274.545898438 458.651367188 m 1
 191.016601562 458.651367188 l 1
 107.529296875 506.881835938 l 1
 191.016601562 506.881835938 l 1
 274.545898438 458.651367188 l 1
EndSplineSet
Validated: 5
EndChar

StartChar: d
Encoding: 100 100 69
Width: 354
GlyphClass: 1
Flags: W
LayerCount: 2
Fore
SplineSet
277.751953125 48.5625 m 1
 361.447265625 48.5615234375 l 1
 277.751953125 0.248046875 l 1
 277.751953125 -0.0009765625 l 1
 194.056640625 -0.0009765625 l 1
 194.056640625 48.64453125 l 1
 110.569335938 0.4560546875 l 1
 26.0009765625 0.4560546875 l 1
 26.0009765625 458.266601562 l 1
 26.04296875 458.266601562 l 1
 26.04296875 458.391601562 l 1
 109.73828125 506.705078125 l 1
 193.43359375 506.705078125 l 1
 114.311523438 461.01171875 l 1
 109.73828125 458.392578125 l 1
 109.73828125 453.154296875 l 1
 109.696289062 453.154296875 l 1
 109.696289062 48.271484375 l 1
 110.569335938 48.7705078125 l 1
 194.056640625 48.7705078125 l 1
 194.056640625 700.873046875 l 1
 277.751953125 652.850585938 l 1
 277.751953125 48.5625 l 1
EndSplineSet
Validated: 1
EndChar

StartChar: e
Encoding: 101 101 70
AltUni2: 0000eb.ffffffff.0 0000eb.ffffffff.0
Width: 293
GlyphClass: 1
Flags: W
LayerCount: 2
Fore
SplineSet
276.541992188 458.600585938 m 1
 276.583984375 216.578125 l 1
 192.9296875 216.578125 l 1
 192.9296875 217.326171875 l 1
 192.014648438 217.326171875 l 1
 108.360351562 265.639648438 l 1
 192.014648438 265.639648438 l 1
 192.9296875 265.140625 l 1
 192.9296875 453.778320312 l 1
 192.887695312 458.725585938 l 1
 109.192382812 507.0390625 l 1
 192.887695312 507.0390625 l 1
 269.390625 462.883789062 l 1
 276.541992188 458.725585938 l 1
 276.541992188 458.600585938 l 1
107.696289062 265.764648438 m 1
 107.86328125 265.763671875 l 1
 108.154296875 0 l 1
 24.04296875 48.10546875 l 1
 24.0009765625 265.639648438 l 1
 24.25 459.141601562 l 1
 107.904296875 507.1640625 l 1
 107.696289062 265.764648438 l 1
108.154296875 -0 m 1
 191.309570312 48.3134765625 l 1
 275.004882812 48.3134765625 l 1
 191.309570312 0 l 1
 108.154296875 -0 l 1
EndSplineSet
Validated: 5
EndChar

StartChar: f
Encoding: 102 102 71
Width: 265
GlyphClass: 1
Flags: W
HStem: 0.341797 21G<122.611 157.101> 680.134 20G<122.253 275.326>
VStem: 73.5713 83.5293<48.7793 410.587 458.859 652.194>
LayerCount: 2
Fore
SplineSet
73.5712890625 652.194335938 m 1
 157.100585938 700.133789062 l 1
 157.100585938 458.859375 l 1
 240.671875 410.587890625 l 1
 157.100585938 410.587890625 l 1
 157.100585938 0.341796875 l 1
 73.5712890625 48.779296875 l 1
 73.5712890625 410.586914062 l 1
 -10 458.858398438 l 1
 73.5712890625 458.858398438 l 1
 73.5712890625 652.194335938 l 1
324.2421875 651.903320312 m 1
 240.670898438 651.903320312 l 1
 157.099609375 700.133789062 l 1
 240.670898438 700.133789062 l 1
 324.2421875 651.903320312 l 1
EndSplineSet
EndChar

StartChar: g
Encoding: 103 103 72
Width: 303
GlyphClass: 1
Flags: W
LayerCount: 2
Fore
SplineSet
276.546875 459.901367188 m 1
 276.673828125 -179.728515625 l 1
 193.01953125 -227.875 l 1
 192.977539062 48.865234375 l 1
 109.905273438 0.884765625 l 1
 26.2509765625 0.884765625 l 1
 26.2509765625 459.360351562 l 1
 26.5 459.485351562 l 1
 26.2919921875 459.485351562 l 1
 109.946289062 507.798828125 l 1
 192.893554688 507.798828125 l 1
 192.893554688 507.923828125 l 1
 193.142578125 507.798828125 l 1
 193.599609375 507.798828125 l 1
 193.350585938 507.673828125 l 1
 276.546875 459.901367188 l 1
109.90625 459.360351562 m 1
 109.90625 49.15625 l 1
 192.978515625 49.15625 l 1
 192.895507812 507.3828125 l 1
 117.057617188 463.6015625 l 1
 109.90625 459.360351562 l 1
26.0029296875 -179.686523438 m 1
 109.657226562 -179.686523438 l 1
 192.8125 -228 l 1
 109.657226562 -228 l 1
 26.0029296875 -179.686523438 l 1
EndSplineSet
Validated: 1
EndChar

StartChar: h
Encoding: 104 104 73
Width: 355
GlyphClass: 1
Flags: W
HStem: 0.000976562 21G<244.914 363.319> 681.127 20G<27.8356 63.1605>
VStem: 26 83.6123<1.41797 654> 196.094 83.6123<48.2725 337.985>
LayerCount: 2
Fore
SplineSet
111 654 m 1
 109.612304688 1.1923828125 l 1
 26 1.41796875 l 1
 27.8896484375 701.126953125 l 1
 111 654 l 1
279.706054688 48.2724609375 m 1
 363.319335938 0.0009765625 l 1
 279.70703125 0.0009765625 l 1
 237.754882812 24.1162109375 l 1
 196.09375 48.2724609375 l 1
 196.09375 337.985351562 l 1
 112.522460938 386.256835938 l 1
 196.09375 386.256835938 l 1
 279.706054688 337.985351562 l 1
 279.706054688 48.2724609375 l 1
EndSplineSet
EndChar

StartChar: i
Encoding: 105 105 74
AltUni2: 0000ef.ffffffff.0 0000ef.ffffffff.0
Width: 150
GlyphClass: 1
Flags: W
LayerCount: 2
Fore
SplineSet
25.0830078125 -0.875 m 1
 25.20703125 450.823242188 l 1
 122.790039062 507.119140625 l 1
 122.624023438 -1 l 1
 25.0830078125 -0.875 l 1
122.790039062 699.790039062 m 1
 122.58203125 586.782226562 l 1
 24.9990234375 530.278320312 l 1
 25.20703125 643.452148438 l 1
 122.790039062 699.790039062 l 1
EndSplineSet
Validated: 1
EndChar

StartChar: j
Encoding: 106 106 75
Width: 218
GlyphClass: 1
Flags: W
LayerCount: 2
Fore
SplineSet
195.775390625 407.470703125 m 1
 195.94140625 -147.922851562 l 1
 89.169921875 -209 l 1
 89.294921875 492.206054688 l 1
 195.775390625 407.470703125 l 1
-25.6259765625 -24.728515625 m 1
 -24.8369140625 -147.673828125 l 1
 89.1689453125 -209.000976562 l 1
 -16.396484375 -209.000976562 l 1
 -122.626953125 -147.673828125 l 1
 -123.000976562 -147.673828125 l 1
 -123.000976562 -24.728515625 l 1
 -25.6259765625 -24.728515625 l 1
EndSplineSet
Validated: 1
EndChar

StartChar: k
Encoding: 107 107 76
Width: 355
GlyphClass: 1
Flags: W
LayerCount: 2
Fore
SplineSet
194.806640625 290.51171875 m 1
 278.750976562 242.034179688 l 1
 278.79296875 -1.0703125 l 1
 236.674804688 23.1689453125 l 1
 194.889648438 47.408203125 l 1
 194.806640625 242.033203125 l 1
 110.944335938 290.470703125 l 1
 110.944335938 -1.029296875 l 1
 26.9990234375 -0.7802734375 l 1
 26.9990234375 651.696289062 l 1
 110.944335938 700.133789062 l 1
 110.944335938 290.51171875 l 1
 194.806640625 290.51171875 l 1
278.750976562 340.573242188 m 1
 194.763671875 292.758789062 l 1
 194.805664062 340.573242188 l 1
 194.805664062 507.506835938 l 1
 278.708984375 507.506835938 l 1
 362.654296875 459.069335938 l 1
 278.708984375 459.069335938 l 1
 278.708984375 340.573242188 l 1
 278.750976562 340.573242188 l 1
EndSplineSet
Validated: 1
EndChar

StartChar: l
Encoding: 108 108 77
Width: 134
GlyphClass: 1
Flags: W
HStem: 0 21G<26 61> 680.175 20G<26 60.873>
VStem: 26 84<48 652>
LayerCount: 2
Fore
SplineSet
110 652 m 5
 110 48 l 1
 26 0 l 1
 26 700.174804688 l 1
 110 652 l 5
EndSplineSet
EndChar

StartChar: m
Encoding: 109 109 78
Width: 469
GlyphClass: 1
Flags: W
LayerCount: 2
Fore
SplineSet
359.62109375 507.87890625 m 1
 442.776367188 459.856445312 l 1
 442.776367188 4.166015625 l 1
 359.62109375 4 l 1
 359.62109375 507.87890625 l 1
235.345703125 483.846679688 m 1
 276.923828125 507.877929688 l 1
 359.622070312 507.877929688 l 1
 276.466796875 460.10546875 l 1
 276.923828125 459.856445312 l 1
 276.923828125 4.166015625 l 1
 193.768554688 4 l 1
 193.768554688 507.87890625 l 1
 235.345703125 483.846679688 l 1
76.3115234375 487.795898438 m 1
 111.112304688 507.879882812 l 1
 193.768554688 507.879882812 l 1
 110.15625 459.857421875 l 1
 110.15625 4.1669921875 l 1
 27.0009765625 4.0419921875 l 1
 27.0009765625 507.87890625 l 1
 69.0771484375 483.59765625 l 1
 69.5341796875 483.846679688 l 1
 76.0205078125 487.629882812 l 1
 76.3115234375 487.795898438 l 1
EndSplineSet
Validated: 5
EndChar

StartChar: n
Encoding: 110 110 79
Width: 306
GlyphClass: 1
Flags: W
LayerCount: 2
Fore
SplineSet
69.658203125 482.50390625 m 1
 111.984375 507.119140625 l 1
 195.513671875 507.119140625 l 1
 111.028320312 458.59765625 l 1
 111.028320312 -1.791015625 l 1
 27 -1.9990234375 l 1
 27 507.118164062 l 1
 69.658203125 482.50390625 l 1
195.513671875 507.119140625 m 1
 279.541992188 458.59765625 l 1
 279.541992188 -1.83203125 l 1
 195.513671875 -1.998046875 l 1
 195.513671875 507.119140625 l 1
EndSplineSet
Validated: 5
EndChar

StartChar: o
Encoding: 111 111 80
AltUni2: 0000f6.ffffffff.0 0000f6.ffffffff.0
Width: 303
GlyphClass: 1
Flags: W
LayerCount: 2
Fore
SplineSet
193.599609375 507.338867188 m 1
 277.12890625 507.463867188 l 1
 277.12890625 48.61328125 l 1
 193.43359375 0.2587890625 l 1
 109.696289062 0.2587890625 l 1
 193.43359375 48.61328125 l 1
 193.43359375 507.213867188 l 1
 110.153320312 459.150390625 l 1
 109.696289062 459.150390625 l 1
 109.696289062 0.2587890625 l 1
 26.0009765625 0.4248046875 l 1
 26.0009765625 459.150390625 l 1
 26.4580078125 459.150390625 l 1
 110.153320312 507.504882812 l 1
 193.890625 507.504882812 l 1
 193.599609375 507.338867188 l 1
EndSplineSet
Validated: 5
EndChar

StartChar: p
Encoding: 112 112 81
Width: 301
GlyphClass: 1
Flags: W
LayerCount: 2
Fore
SplineSet
22.748046875 410.75390625 m 1
 106.569335938 459.150390625 l 1
 107.317382812 -229 l 1
 22 -180.229492188 l 1
 22.748046875 410.75390625 l 1
190.59765625 507.546875 m 1
 275.333007812 507.546875 l 1
 275.333007812 48.9462890625 l 1
 275.291015625 48.9462890625 l 1
 275.291015625 48.8212890625 l 1
 191.470703125 0.4248046875 l 1
 107.650390625 0.4248046875 l 1
 184.818359375 44.99609375 l 1
 191.470703125 48.8212890625 l 1
 191.512695312 57.26171875 l 1
 191.512695312 459.649414062 l 1
 190.59765625 459.150390625 l 1
 106.77734375 459.150390625 l 1
 190.59765625 507.546875 l 1
EndSplineSet
Validated: 1
EndChar

StartChar: q
Encoding: 113 113 82
Width: 303
GlyphClass: 1
Flags: W
HStem: 0.712891 21G<74.3479 194.224> 487.876 20G<26 145.625>
VStem: 26 84.1113<47.6953 459.854> 194.556 85.5664<-182.062 410.751>
LayerCount: 2
Fore
SplineSet
124.955078125 39.4208984375 m 1
 194.223632812 0.712890625 l 1
 110.153320312 0.712890625 l 1
 26.0419921875 47.6953125 l 1
 26.0419921875 47.8203125 l 1
 26 47.8203125 l 1
 26 507.875976562 l 1
 110.984375 507.875976562 l 1
 195.095703125 459.313476562 l 1
 110.984375 459.313476562 l 1
 110.111328125 459.853515625 l 1
 110.111328125 75.302734375 l 1
 110.153320312 47.6953125 l 1
 124.955078125 39.4208984375 l 1
280.0390625 -119.571289062 m 5
 280.122070312 -182.0625 l 1
 194.555664062 -230.999023438 l 1
 194.680664062 -119.23828125 l 1
 194.72265625 -71.0498046875 l 1
 195.3046875 459.313476562 l 1
 279.375 410.750976562 l 1
 279.999023438 -71.3828125 l 1
 280.0390625 -119.571289062 l 5
EndSplineSet
EndChar

StartChar: r
Encoding: 114 114 83
Width: 265
GlyphClass: 1
Flags: W
LayerCount: 2
Fore
SplineSet
275.834960938 410.545898438 m 1
 191.888671875 410.546875 l 1
 107.985351562 458.984375 l 1
 108.484375 -1.23828125 l 1
 24.5390625 47.44921875 l 1
 23.9990234375 459.31640625 l 1
 107.944335938 507.504882812 l 1
 107.986328125 459.025390625 l 1
 191.889648438 459.025390625 l 1
 275.834960938 410.545898438 l 1
EndSplineSet
Validated: 1
EndChar

StartChar: s
Encoding: 115 115 84
Width: 291
GlyphClass: 1
Flags: W
LayerCount: 2
Fore
SplineSet
0 48.271484375 m 1
 83.654296875 48.271484375 l 1
 166.809570312 0 l 1
 83.654296875 -0 l 1
 0 48.271484375 l 1
292 458.849609375 m 1
 208.345703125 458.849609375 l 1
 125.232421875 507.163085938 l 1
 208.345703125 507.163085938 l 1
 292 458.849609375 l 1
124.94140625 314.159179688 m 1
 240.1953125 247.427734375 l 1
 250.46484375 241.482421875 l 1
 250.46484375 48.271484375 l 1
 166.810546875 -0 l 1
 167.059570312 176.330078125 l 1
 166.768554688 193.168945312 l 1
 156.665039062 199.03125 l 1
 41.537109375 265.6796875 l 1
 41.537109375 458.890625 l 1
 125.232421875 507.162109375 l 1
 124.94140625 314.159179688 l 1
EndSplineSet
Validated: 1
EndChar

StartChar: t
Encoding: 116 116 85
Width: 232
GlyphClass: 1
Flags: W
LayerCount: 2
Fore
SplineSet
238.00390625 459.19140625 m 1
 154.473632812 459.192382812 l 1
 154.556640625 48.447265625 l 1
 70.4453125 0.341796875 l 1
 70.5283203125 459.275390625 l 1
 -13.0009765625 507.505859375 l 1
 70.5283203125 507.505859375 l 1
 70.5703125 700.134765625 l 1
 154.432617188 652.112304688 l 1
 154.474609375 507.421875 l 1
 238.00390625 459.19140625 l 1
EndSplineSet
Validated: 1
EndChar

StartChar: u
Encoding: 117 117 86
AltUni2: 0000fc.ffffffff.0 0000fc.ffffffff.0
Width: 348
GlyphClass: 1
Flags: W
HStem: 0 21G<26.667 142.456 191.667 310.701> 487 20G<26.667 52.6045 191.667 219.074>
VStem: 26.667 83.6787<49.291 443> 191.667 87.333<49 443>
LayerCount: 2
Fore
SplineSet
190 49 m 25
 109.666992188 0 l 1
 26.6669921875 0 l 1
 26.6669921875 507 l 1
 109.666992188 443 l 5
 110.345703125 49.291015625 l 5
 190 49 l 25
191.666992188 506 m 25
 278 443 l 1
 279 49 l 25
 357 49 l 1
 278.771484375 0 l 1
 191.666992188 0 l 1
 191.666992188 506 l 25
EndSplineSet
EndChar

StartChar: v
Encoding: 118 118 87
Width: 291
GlyphClass: 1
Flags: W
HStem: 0.299805 21G<231.108 265.553> 480.936 19.917G<18.0351 52.6663 183.102 217.711>
VStem: 17.999 82.5322<358.075 453.205> 183.062 82.4902<167.358 453.287>
LayerCount: 2
Fore
SplineSet
183.104492188 500.935546875 m 1
 265.552734375 453.287109375 l 1
 265.552734375 0.2998046875 l 1
 183.0625 48.197265625 l 1
 17.9990234375 358.075195312 l 1
 18.041015625 500.852539062 l 1
 100.53125 453.205078125 l 1
 100.53125 358.075195312 l 1
 183.0625 167.358398438 l 1
 183.104492188 500.935546875 l 1
EndSplineSet
Validated: 1
EndChar

StartChar: w
Encoding: 119 119 88
Width: 471
GlyphClass: 1
Flags: W
LayerCount: 2
Fore
SplineSet
361.658203125 507.955078125 m 1
 445.3125 507.7890625 l 1
 445.3125 49.3134765625 l 1
 361.658203125 1 l 1
 361.658203125 507.955078125 l 1
278.461914062 49.3134765625 m 1
 278.00390625 49.0634765625 l 1
 361.658203125 1 l 1
 278.461914062 1 l 1
 236.634765625 25.15625 l 1
 194.807617188 1 l 1
 194.807617188 507.955078125 l 1
 278.461914062 507.7890625 l 1
 278.461914062 49.3134765625 l 1
112.94140625 47.982421875 m 1
 194.807617188 0.9990234375 l 1
 111.611328125 0.9990234375 l 1
 75.646484375 21.7880859375 l 1
 69.2431640625 25.4052734375 l 1
 27 0.9990234375 l 1
 27 507.954101562 l 1
 110.654296875 507.788085938 l 1
 110.654296875 49.3125 l 1
 112.94140625 47.982421875 l 1
EndSplineSet
Validated: 5
EndChar

StartChar: x
Encoding: 120 120 89
Width: 305
GlyphClass: 1
Flags: W
LayerCount: 2
Fore
SplineSet
277.748046875 273.77734375 m 1
 278.58203125 -4.333984375 l 1
 194.428710938 44.2705078125 l 1
 193.555664062 273.11328125 l 1
 193.513671875 273.11328125 l 1
 109.27734375 224.467773438 l 1
 109.27734375 -4.9990234375 l 1
 25.0830078125 43.60546875 l 1
 25.041015625 219.520507812 l 1
 25.041015625 224.467773438 l 1
 30.1962890625 227.4609375 l 1
 108.528320312 272.697265625 l 1
 24.7080078125 272.697265625 l 1
 24.0009765625 505.65625 l 1
 108.154296875 457.051757812 l 1
 108.90234375 272.904296875 l 1
 109.276367188 273.112304688 l 1
 193.512695312 321.716796875 l 1
 193.76171875 321.716796875 l 1
 194.34375 458.1328125 l 1
 278.497070312 506.778320312 l 1
 277.998046875 321.591796875 l 1
 277.499023438 321.591796875 l 1
 194.634765625 273.77734375 l 1
 277.748046875 273.77734375 l 1
EndSplineSet
Validated: 1
EndChar

StartChar: y
Encoding: 121 121 90
Width: 306
GlyphClass: 1
Flags: W
LayerCount: 2
Fore
SplineSet
194.137695312 459.565429688 m 1
 278.08203125 507.920898438 l 1
 277.250976562 0.341796875 l 1
 193.22265625 0.341796875 l 1
 192.806640625 -185.21875 l 1
 109.40234375 -233.864257812 l 1
 109.776367188 0.341796875 l 1
 109.40234375 0.341796875 l 1
 26.62109375 48.1142578125 l 1
 25.3740234375 48.1142578125 l 1
 25 509.625 l 1
 108.986328125 461.103515625 l 1
 109.40234375 48.8203125 l 1
 193.22265625 0.423828125 l 1
 194.137695312 459.565429688 l 1
EndSplineSet
Validated: 1
EndChar

StartChar: z
Encoding: 122 122 91
Width: 318
GlyphClass: 1
Flags: W
LayerCount: 2
Fore
SplineSet
239.193359375 92.39453125 m 1
 319.353515625 46.0771484375 l 1
 239.067382812 -0.1572265625 l 1
 119.19921875 -0.1572265625 l 1
 39.12109375 46.0771484375 l 1
 39.12109375 46.119140625 l 1
 40.0771484375 207.689453125 l 1
 40.41015625 207.689453125 l 1
 119.740234375 253.466796875 l 1
 80.44921875 276.583984375 l 1
 120.48828125 300.1171875 l 1
 160.1953125 276.833984375 l 1
 199.444335938 299.452148438 l 1
 198.197265625 299.452148438 l 1
 198.405273438 461.438476562 l 1
 179.23828125 472.540039062 l 1
 79.1611328125 414.747070312 l 1
 -1 461.064453125 l 1
 79.2451171875 507.256835938 l 1
 199.11328125 507.256835938 l 1
 279.19140625 461.064453125 l 1
 278.276367188 299.452148438 l 1
 279.440429688 299.452148438 l 1
 200.567382812 253.8828125 l 1
 199.90234375 253.508789062 l 1
 239.983398438 229.975585938 l 1
 199.403320312 206.567382812 l 1
 159.364257812 230.141601562 l 1
 120.489257812 207.689453125 l 1
 120.15625 207.689453125 l 1
 119.907226562 45.703125 l 1
 139.116210938 34.6015625 l 1
 239.193359375 92.39453125 l 1
EndSplineSet
Validated: 1
EndChar

StartChar: braceleft
Encoding: 123 123 92
Width: 493
GlyphClass: 1
Flags: W
LayerCount: 2
Fore
SplineSet
462.698242188 829.805664062 m 1
 354.596679688 829.805664062 l 1
 246.495117188 892.213867188 l 1
 354.596679688 892.213867188 l 1
 462.698242188 829.805664062 l 1
354.762695312 62.7412109375 m 1
 462.864257812 62.7412109375 l 1
 354.762695312 0.3330078125 l 1
 246.661132812 0.3330078125 l 1
 354.762695312 62.7412109375 l 1
244.790039062 384.759765625 m 1
 245.124023438 384.759765625 l 1
 245.540039062 0.0009765625 l 1
 137.479492188 62.3671875 l 1
 137.022460938 384.759765625 l 1
 136.689453125 384.759765625 l 1
 30.16796875 446.252929688 l 1
 30.001953125 446.252929688 l 1
 136.5234375 507.788085938 l 1
 136.897460938 507.788085938 l 1
 137.354492188 830.180664062 l 1
 245.373046875 892.546875 l 1
 244.95703125 507.788085938 l 1
 244.624023438 507.788085938 l 1
 138.060546875 446.252929688 l 1
 138.185546875 446.252929688 l 1
 244.790039062 384.759765625 l 1
EndSplineSet
Validated: 1
EndChar

StartChar: verticalbar
Encoding: 124 124 93
Width: 134
GlyphClass: 1
Flags: W
LayerCount: 2
Fore
SplineSet
103.883789062 0 m 1
 30 0 l 1
 30 916.578125 l 1
 103.883789062 916.578125 l 1
 103.883789062 0 l 1
EndSplineSet
Validated: 1
EndChar

StartChar: braceright
Encoding: 125 125 94
Width: 493
GlyphClass: 1
Flags: W
LayerCount: 2
Fore
SplineSet
462.698242188 446.251953125 m 1
 462.864257812 446.251953125 l 1
 356.342773438 384.758789062 l 1
 355.96875 384.758789062 l 1
 355.51171875 62.3662109375 l 1
 247.493164062 -0 l 1
 247.8671875 384.758789062 l 1
 248.241210938 384.758789062 l 1
 354.8046875 446.251953125 l 1
 354.6796875 446.251953125 l 1
 248.075195312 507.787109375 l 1
 247.7421875 507.787109375 l 1
 247.326171875 892.545898438 l 1
 355.38671875 830.1796875 l 1
 355.84375 507.787109375 l 1
 356.176757812 507.787109375 l 1
 462.698242188 446.251953125 l 1
30.166015625 62.740234375 m 1
 138.267578125 62.740234375 l 1
 246.369140625 0.33203125 l 1
 138.267578125 0.33203125 l 1
 30.166015625 62.740234375 l 1
246.203125 892.212890625 m 1
 138.1015625 829.8046875 l 1
 30 829.8046875 l 1
 138.1015625 892.212890625 l 1
 246.203125 892.212890625 l 1
EndSplineSet
Validated: 1
EndChar

StartChar: asciitilde
Encoding: 126 126 95
Width: 534
GlyphClass: 1
Flags: W
LayerCount: 2
Fore
SplineSet
528.631835938 354.360351562 m 1
 416.74609375 311.9921875 l 1
 367.684570312 319.974609375 l 1
 367.892578125 319.80859375 l 1
 289.310546875 332.573242188 l 1
 289.14453125 332.698242188 l 1
 237.005859375 341.138671875 l 1
 99.6337890625 289 l 1
 6.9990234375 364.546875 l 1
 118.884765625 406.873046875 l 1
 169.651367188 398.640625 l 1
 169.693359375 398.598632812 l 1
 218.130859375 390.782226562 l 1
 218.296875 390.616210938 l 1
 296.670898438 377.893554688 l 1
 297.418945312 377.26953125 l 1
 435.997070312 429.907226562 l 1
 528.631835938 354.360351562 l 1
EndSplineSet
Validated: 1
EndChar

StartChar: cent
Encoding: 162 162 97
Width: 389
GlyphClass: 1
Flags: W
LayerCount: 2
Fore
SplineSet
191.8203125 165.645507812 m 1
 275.349609375 213.833984375 l 1
 358.836914062 213.833984375 l 1
 275.349609375 165.645507812 l 1
 191.8203125 165.645507812 l 1
275.806640625 623.997070312 m 1
 191.819335938 367.087890625 l 1
 191.819335938 165.64453125 l 1
 136.521484375 197.909179688 l 1
 77.4814453125 17.212890625 l 1
 30 0 l 1
 108.33203125 239.5703125 l 1
 108.33203125 624.329101562 l 1
 191.819335938 672.80859375 l 1
 191.819335938 495.022460938 l 1
 240.547851562 644.078125 l 1
 191.819335938 672.184570312 l 1
 249.737304688 672.184570312 l 1
 306.19921875 844.856445312 l 1
 353.639648438 862.111328125 l 1
 288.986328125 664.327148438 l 1
 358.836914062 623.997070312 l 1
 275.806640625 623.997070312 l 1
EndSplineSet
Validated: 5
EndChar

StartChar: yen
Encoding: 165 165 98
Width: 461
GlyphClass: 1
Flags: W
LayerCount: 2
Fore
SplineSet
431.348632812 226.971679688 m 1
 274.103515625 226.971679688 l 1
 273.978515625 176.081054688 l 1
 431.349609375 176.081054688 l 1
 431.349609375 101.241210938 l 1
 273.728515625 101.241210938 l 1
 273.603515625 49.9755859375 l 1
 187.0390625 -0.0009765625 l 1
 187.288085938 101.240234375 l 1
 30 101.240234375 l 1
 30 176.080078125 l 1
 187.454101562 176.080078125 l 1
 187.579101562 226.970703125 l 1
 30 226.970703125 l 1
 30 301.810546875 l 1
 187.787109375 301.810546875 l 1
 187.912109375 350.9140625 l 1
 187.205078125 350.9140625 l 1
 100.598632812 400.890625 l 1
 100.224609375 702.661132812 l 1
 186.7890625 652.643554688 l 1
 187.205078125 400.891601562 l 1
 273.64453125 350.998046875 l 1
 274.559570312 650.897460938 l 1
 361.124023438 700.915039062 l 1
 360.250976562 350 l 1
 274.4765625 350 l 1
 274.3515625 301.811523438 l 1
 431.348632812 301.811523438 l 1
 431.348632812 226.971679688 l 1
EndSplineSet
Validated: 1
EndChar

StartChar: copyright
Encoding: 169 169 99
Width: 651
GlyphClass: 1
Flags: W
LayerCount: 2
Fore
SplineSet
536.623046875 615.140625 m 1
 621.068359375 566.412109375 l 1
 621.068359375 48.7294921875 l 1
 620.528320312 48.7294921875 l 1
 536.083984375 0.0009765625 l 1
 114.4453125 0.0009765625 l 1
 30.0009765625 48.7294921875 l 1
 30.0009765625 566.412109375 l 1
 30.541015625 566.412109375 l 1
 114.943359375 615.140625 l 1
 536.623046875 615.140625 l 1
536.083984375 48.7294921875 m 1
 536.666015625 48.7294921875 l 1
 536.666015625 566.412109375 l 1
 457.709960938 611.981445312 l 1
 193.94140625 611.981445312 l 1
 114.985351562 566.412109375 l 1
 114.4453125 566.412109375 l 1
 114.4453125 48.7294921875 l 1
 193.401367188 3.16015625 l 1
 457.127929688 3.16015625 l 1
 536.083984375 48.7294921875 l 1
302.29296875 272.291992188 m 1
 302.375976562 87.3544921875 l 1
 250.279296875 117.124023438 l 1
 250.362304688 289.421875 l 1
 250.404296875 491.655273438 l 1
 302.500976562 521.466796875 l 1
 302.29296875 272.291992188 l 1
302.375976562 87.3125 m 1
 354.098632812 117.165039062 l 1
 405.821289062 117.165039062 l 1
 354.098632812 87.3125 l 1
 302.375976562 87.3125 l 1
302.500976562 521.465820312 m 1
 354.223632812 521.465820312 l 1
 405.946289062 491.61328125 l 1
 354.223632812 491.61328125 l 1
 302.500976562 521.465820312 l 1
EndSplineSet
Validated: 1
EndChar

StartChar: guillemotleft
Encoding: 171 171 100
Width: 418
GlyphClass: 1
Flags: W
LayerCount: 2
Fore
SplineSet
30 136.915039062 m 1
 30 273.830078125 l 1
 178.930664062 410.745117188 l 1
 178.930664062 273.830078125 l 1
 104.46484375 205.393554688 l 1
 178.930664062 136.915039062 l 1
 178.930664062 0 l 1
 30 136.915039062 l 1
387.692382812 410.745117188 m 1
 387.692382812 273.830078125 l 1
 313.2265625 205.393554688 l 1
 387.692382812 136.915039062 l 1
 387.692382812 0 l 1
 238.76171875 136.915039062 l 1
 238.76171875 273.830078125 l 1
 387.692382812 410.745117188 l 1
EndSplineSet
Validated: 1
EndChar

StartChar: registered
Encoding: 174 174 102
Width: 651
GlyphClass: 1
Flags: W
LayerCount: 2
Fore
SplineSet
536.623046875 615.140625 m 1
 621.068359375 566.412109375 l 1
 621.068359375 48.7294921875 l 1
 620.528320312 48.7294921875 l 1
 536.083984375 0.0009765625 l 1
 114.4453125 0.0009765625 l 1
 30.0009765625 48.7294921875 l 1
 30.0009765625 566.412109375 l 1
 30.541015625 566.412109375 l 1
 114.943359375 615.140625 l 1
 536.623046875 615.140625 l 1
536.083984375 48.7294921875 m 1
 536.666015625 48.7294921875 l 1
 536.666015625 566.412109375 l 1
 457.709960938 611.981445312 l 1
 193.94140625 611.981445312 l 1
 114.985351562 566.412109375 l 1
 114.4453125 566.412109375 l 1
 114.4453125 48.7294921875 l 1
 193.401367188 3.16015625 l 1
 457.127929688 3.16015625 l 1
 536.083984375 48.7294921875 l 1
396.965820312 340.146484375 m 1
 345.701171875 310.418945312 l 1
 397.381835938 280.56640625 l 1
 397.381835938 101.408203125 l 1
 371.520507812 116.334960938 l 1
 344.869140625 131.71875 l 1
 345.659179688 280.56640625 l 1
 293.936523438 310.418945312 l 1
 345.451171875 310.418945312 l 1
 345.451171875 489.784179688 l 1
 345.243164062 489.784179688 l 1
 293.936523438 519.428710938 l 1
 345.243164062 519.63671875 l 1
 396.965820312 489.784179688 l 1
 396.965820312 340.146484375 l 1
266.205078125 535.64453125 m 1
 293.9375 519.430664062 l 1
 293.9375 131.303710938 l 1
 293.8125 131.303710938 l 1
 242.08984375 101.409179688 l 1
 242.08984375 131.344726562 l 1
 242.21484375 131.344726562 l 1
 242.21484375 519.4296875 l 1
 214.44140625 535.64453125 l 1
 266.205078125 535.64453125 l 1
EndSplineSet
Validated: 5
EndChar

StartChar: degree
Encoding: 176 176 103
Width: 223
GlyphClass: 1
Flags: W
LayerCount: 2
Fore
SplineSet
123.7578125 711.600585938 m 1
 170.44921875 711.68359375 l 1
 170.44921875 455.025390625 l 1
 123.6328125 428 l 1
 76.81640625 428 l 1
 123.6328125 455.025390625 l 1
 123.6328125 711.517578125 l 1
 77.06640625 684.658203125 l 1
 76.8173828125 684.658203125 l 1
 76.8173828125 428 l 1
 30.0009765625 428.083007812 l 1
 30.0009765625 684.658203125 l 1
 30.25 684.658203125 l 1
 77.06640625 711.68359375 l 1
 123.8828125 711.68359375 l 1
 123.7578125 711.600585938 l 1
EndSplineSet
Validated: 5
EndChar

StartChar: acute
Encoding: 180 180 104
Width: 264
GlyphClass: 1
Flags: W
LayerCount: 2
Fore
SplineSet
130.60546875 433.51171875 m 1
 256.2109375 433.51171875 l 1
 130.60546875 361 l 1
 5 361 l 1
 130.60546875 433.51171875 l 1
EndSplineSet
Validated: 1
EndChar

StartChar: cedilla
Encoding: 184 184 105
Width: 129
GlyphClass: 1
Flags: W
LayerCount: 2
Fore
SplineSet
51.24609375 96.66796875 m 1
 98.8935546875 96.66796875 l 1
 98.8935546875 49.0205078125 l 1
 62.0146484375 0.0009765625 l 1
 30 0.0009765625 l 1
 51.24609375 49.0205078125 l 1
 51.24609375 96.66796875 l 1
EndSplineSet
Validated: 1
EndChar

StartChar: guillemotright
Encoding: 187 187 106
Width: 418
GlyphClass: 1
Flags: W
LayerCount: 2
Fore
SplineSet
238.760742188 410.745117188 m 1
 387.69140625 273.830078125 l 1
 387.69140625 136.915039062 l 1
 238.760742188 0 l 1
 238.760742188 136.915039062 l 1
 313.2265625 205.393554688 l 1
 238.760742188 273.830078125 l 1
 238.760742188 410.745117188 l 1
29.9990234375 273.830078125 m 1
 29.9990234375 410.745117188 l 1
 178.9296875 273.830078125 l 1
 178.9296875 136.915039062 l 1
 29.9990234375 0 l 1
 29.9990234375 136.915039062 l 1
 104.46484375 205.393554688 l 1
 29.9990234375 273.830078125 l 1
EndSplineSet
Validated: 1
EndChar

StartChar: Agrave
Encoding: 192 192 107
Width: 318
GlyphClass: 1
Flags: W
LayerCount: 2
Fore
SplineSet
116.002929688 696.923828125 m 1
 116.002929688 348.461914062 l 1
 202.234375 298.693359375 l 1
 116.002929688 298.693359375 l 1
 116.002929688 0 l 1
 29.771484375 0 l 1
 29.771484375 696.923828125 l 1
 116.002929688 696.923828125 l 1
288.383789062 647.197265625 m 1
 288.508789062 647.197265625 l 1
 288.508789062 0.0009765625 l 1
 202.235351562 0.0009765625 l 1
 202.235351562 647.114257812 l 1
 116.00390625 696.923828125 l 1
 202.235351562 696.923828125 l 1
 288.383789062 647.197265625 l 1
271.212890625 744.447265625 m 1
 145.607421875 744.447265625 l 1
 20.001953125 816.958984375 l 1
 145.607421875 816.958984375 l 1
 271.212890625 744.447265625 l 1
EndSplineSet
Validated: 1
EndChar

StartChar: Aacute
Encoding: 193 193 108
Width: 318
GlyphClass: 1
Flags: W
LayerCount: 2
Fore
SplineSet
116.231445312 696.923828125 m 1
 116.231445312 348.461914062 l 1
 202.462890625 298.693359375 l 1
 116.231445312 298.693359375 l 1
 116.231445312 0 l 1
 30 0 l 1
 30 696.923828125 l 1
 116.231445312 696.923828125 l 1
202.462890625 696.923828125 m 1
 288.611328125 647.197265625 l 1
 288.736328125 647.197265625 l 1
 288.736328125 0.0009765625 l 1
 202.462890625 0.0009765625 l 1
 202.462890625 647.114257812 l 1
 116.231445312 696.923828125 l 1
 202.462890625 696.923828125 l 1
315.470703125 816.958984375 m 1
 189.823242188 744.447265625 l 1
 64.2177734375 744.447265625 l 1
 189.823242188 816.958984375 l 1
 315.470703125 816.958984375 l 1
EndSplineSet
Validated: 5
EndChar

StartChar: Acircumflex
Encoding: 194 194 109
Width: 318
GlyphClass: 1
Flags: W
LayerCount: 2
Fore
SplineSet
115.87890625 696.923828125 m 1
 115.87890625 348.50390625 l 1
 202.110351562 298.735351562 l 1
 115.87890625 298.735351562 l 1
 115.87890625 0.0419921875 l 1
 29.6474609375 0.0419921875 l 1
 29.6474609375 696.923828125 l 1
 115.87890625 696.923828125 l 1
202.110351562 696.923828125 m 1
 288.258789062 647.197265625 l 1
 288.383789062 647.197265625 l 1
 288.383789062 0.0419921875 l 1
 202.110351562 0.0419921875 l 1
 202.110351562 647.155273438 l 1
 115.87890625 696.923828125 l 1
 202.110351562 696.923828125 l 1
147.14453125 797.458984375 m 1
 98.4150390625 744.447265625 l 1
 0.9990234375 744.447265625 l 1
 98.4150390625 850.428710938 l 1
 195.873046875 850.428710938 l 1
 293.2890625 744.447265625 l 1
 195.873046875 744.447265625 l 1
 147.14453125 797.458984375 l 1
EndSplineSet
Validated: 5
EndChar

StartChar: Atilde
Encoding: 195 195 110
Width: 318
GlyphClass: 1
Flags: W
LayerCount: 2
Fore
SplineSet
116.323242188 696.923828125 m 1
 116.323242188 348.461914062 l 1
 202.5546875 298.693359375 l 1
 116.323242188 298.693359375 l 1
 116.323242188 0 l 1
 30.091796875 0 l 1
 30.091796875 696.923828125 l 1
 116.323242188 696.923828125 l 1
202.5546875 696.923828125 m 1
 288.703125 647.197265625 l 1
 288.828125 647.197265625 l 1
 288.828125 0.0009765625 l 1
 202.5546875 0.0009765625 l 1
 202.5546875 647.114257812 l 1
 116.323242188 696.923828125 l 1
 202.5546875 696.923828125 l 1
146.96484375 786.7734375 m 1
 52.9990234375 758.668945312 l 1
 -5.001953125 813.467773438 l 1
 71.5009765625 836.251953125 l 1
 104.887695312 828.310546875 l 1
 104.9296875 828.268554688 l 1
 136.819335938 820.701171875 l 1
 136.944335938 820.576171875 l 1
 188.458984375 808.352539062 l 1
 188.958007812 807.895507812 l 1
 283.754882812 836.209960938 l 1
 341.755859375 781.411132812 l 1
 265.252929688 758.626953125 l 1
 232.947265625 766.318359375 l 1
 233.072265625 766.193359375 l 1
 181.391601562 778.5 l 1
 181.266601562 778.583007812 l 1
 146.96484375 786.7734375 l 1
EndSplineSet
Validated: 5
EndChar

StartChar: Adieresis
Encoding: 196 196 111
Width: 340
GlyphClass: 1
Flags: W
LayerCount: 2
Fore
SplineSet
137.9765625 696.923828125 m 1
 137.9765625 348.502929688 l 1
 224.208007812 298.693359375 l 1
 137.9765625 298.693359375 l 1
 137.9765625 0 l 1
 51.7451171875 0 l 1
 51.7451171875 696.923828125 l 1
 137.9765625 696.923828125 l 1
224.208007812 696.922851562 m 1
 310.356445312 647.196289062 l 1
 310.439453125 647.196289062 l 1
 310.439453125 0 l 1
 224.208007812 -0 l 1
 224.208007812 647.11328125 l 1
 137.9765625 696.922851562 l 1
 224.208007812 696.922851562 l 1
132.404296875 741.078125 m 1
 29.9990234375 741.078125 l 1
 29.9990234375 843.483398438 l 1
 132.404296875 843.483398438 l 1
 132.404296875 741.078125 l 1
310.439453125 741.078125 m 1
 208.034179688 741.078125 l 1
 208.034179688 843.483398438 l 1
 310.439453125 843.483398438 l 1
 310.439453125 741.078125 l 1
EndSplineSet
Validated: 5
EndChar

StartChar: Aring
Encoding: 197 197 112
Width: 319
GlyphClass: 1
Flags: W
LayerCount: 2
Fore
SplineSet
288.612304688 650.065429688 m 1
 288.6953125 650.06640625 l 1
 288.6953125 0.0009765625 l 1
 202.463867188 0.0009765625 l 1
 202.463867188 650.024414062 l 1
 116.232421875 699.833984375 l 1
 116.232421875 351.372070312 l 1
 202.463867188 301.603515625 l 1
 116.232421875 301.603515625 l 1
 116.232421875 0 l 1
 30.0009765625 0 l 1
 30.0009765625 699.833984375 l 1
 116.06640625 699.833984375 l 1
 145.918945312 717.046875 l 1
 145.918945312 828.599609375 l 1
 116.232421875 811.469726562 l 1
 116.06640625 811.469726562 l 1
 116.06640625 699.833984375 l 1
 86.2548828125 699.875976562 l 1
 86.2548828125 811.469726562 l 1
 86.4208984375 811.469726562 l 1
 116.232421875 828.682617188 l 1
 146.084960938 828.682617188 l 1
 145.959960938 828.640625 l 1
 175.729492188 828.682617188 l 1
 175.729492188 717.046875 l 1
 145.91796875 699.833984375 l 1
 202.463867188 699.833984375 l 1
 288.612304688 650.065429688 l 1
EndSplineSet
Validated: 5
EndChar

StartChar: AE
Encoding: 198 198 113
Width: 448
GlyphClass: 1
Flags: W
LayerCount: 2
Fore
SplineSet
375.176757812 26.3603515625 m 1
 418.293945312 1.330078125 l 1
 288.696289062 1.330078125 l 1
 288.696289062 0 l 1
 202.46484375 0 l 1
 202.46484375 51.265625 l 1
 202.256835938 51.390625 l 1
 202.256835938 301.604492188 l 1
 116.232421875 301.604492188 l 1
 116.232421875 0.0009765625 l 1
 30.0009765625 0.0009765625 l 1
 30.0009765625 699.834960938 l 1
 116.232421875 699.834960938 l 1
 116.232421875 351.415039062 l 1
 202.256835938 301.729492188 l 1
 202.256835938 650.149414062 l 1
 116.232421875 699.834960938 l 1
 202.463867188 699.834960938 l 1
 204.750976562 698.504882812 l 1
 331.604492188 698.504882812 l 1
 417.8359375 648.736328125 l 1
 331.604492188 648.736328125 l 1
 288.48828125 673.641601562 l 1
 287.948242188 673.641601562 l 1
 288.530273438 673.30859375 l 1
 288.48828125 673.30859375 l 1
 288.48828125 650.149414062 l 1
 288.61328125 650.107421875 l 1
 288.696289062 650.107421875 l 1
 288.696289062 398.604492188 l 1
 315.264648438 398.604492188 l 1
 401.49609375 348.8359375 l 1
 288.696289062 348.8359375 l 1
 288.696289062 51.265625 l 1
 331.645507812 26.3603515625 l 1
 375.176757812 26.3603515625 l 1
EndSplineSet
Validated: 5
EndChar

StartChar: Ccedilla
Encoding: 199 199 114
Width: 262
GlyphClass: 1
Flags: W
LayerCount: 2
Fore
SplineSet
107.654296875 457.434570312 m 1
 107.98828125 -1.248046875 l 1
 24.04296875 46.732421875 l 1
 24.0009765625 457.26953125 l 1
 24.25 650.35546875 l 1
 107.737304688 698.293945312 l 1
 107.48828125 457.434570312 l 1
 107.654296875 457.434570312 l 1
274.381835938 650.189453125 m 1
 191.060546875 650.189453125 l 1
 107.739257812 698.294921875 l 1
 191.060546875 698.294921875 l 1
 274.381835938 650.189453125 l 1
191.309570312 46.8154296875 m 1
 274.630859375 46.8154296875 l 1
 191.309570312 -1.3310546875 l 1
 176.881835938 -1.3310546875 l 1
 176.881835938 -48.9375 l 1
 140.002929688 -97.9990234375 l 1
 107.98828125 -97.9990234375 l 1
 129.234375 -48.9375 l 1
 129.234375 -1.3310546875 l 1
 107.98828125 -1.3310546875 l 1
 191.309570312 46.8154296875 l 1
EndSplineSet
Validated: 1
EndChar

StartChar: Egrave
Encoding: 200 200 115
Width: 360
GlyphClass: 1
Flags: W
LayerCount: 2
Fore
SplineSet
281.211914062 752.1796875 m 1
 155.606445312 752.1796875 l 1
 30.0009765625 824.69140625 l 1
 155.606445312 824.69140625 l 1
 281.211914062 752.1796875 l 1
286.659179688 24.98828125 m 1
 329.775390625 0.0009765625 l 1
 200.01171875 0.0009765625 l 1
 156.771484375 24.9892578125 l 1
 156.896484375 24.9892578125 l 1
 113.780273438 50.060546875 l 1
 113.780273438 671.936523438 l 1
 113.655273438 671.936523438 l 1
 70.6220703125 697.173828125 l 1
 243.0859375 697.173828125 l 1
 329.317382812 647.405273438 l 1
 243.0859375 647.405273438 l 1
 200.01171875 672.268554688 l 1
 199.4296875 672.268554688 l 1
 200.01171875 671.935546875 l 1
 200.01171875 397.232421875 l 1
 226.74609375 397.232421875 l 1
 312.977539062 347.463867188 l 1
 200.177734375 347.463867188 l 1
 200.01171875 347.588867188 l 1
 200.01171875 50.0595703125 l 1
 243.127929688 24.98828125 l 1
 286.659179688 24.98828125 l 1
EndSplineSet
Validated: 1
EndChar

StartChar: Eacute
Encoding: 201 201 116
Width: 335
GlyphClass: 1
Flags: W
LayerCount: 2
Fore
SplineSet
305.243164062 824.899414062 m 1
 179.637695312 752.387695312 l 1
 54.0322265625 752.387695312 l 1
 179.637695312 824.899414062 l 1
 305.243164062 824.899414062 l 1
202.505859375 24.98828125 m 1
 246.038085938 24.9892578125 l 1
 289.154296875 0.0009765625 l 1
 159.390625 0.0009765625 l 1
 116.150390625 24.9892578125 l 1
 116.275390625 24.9892578125 l 1
 73.1591796875 50.060546875 l 1
 73.1591796875 671.936523438 l 1
 73.0341796875 671.936523438 l 1
 30.0009765625 697.173828125 l 1
 202.46484375 697.173828125 l 1
 288.696289062 647.405273438 l 1
 202.46484375 647.405273438 l 1
 159.348632812 672.268554688 l 1
 158.80859375 672.268554688 l 1
 159.390625 671.935546875 l 1
 159.348632812 671.935546875 l 1
 159.348632812 397.232421875 l 1
 186.125 397.232421875 l 1
 272.356445312 347.463867188 l 1
 159.556640625 347.463867188 l 1
 159.348632812 347.588867188 l 1
 159.348632812 50.0595703125 l 1
 202.505859375 24.98828125 l 1
EndSplineSet
Validated: 1
EndChar

StartChar: Ecircumflex
Encoding: 202 202 117
Width: 352
GlyphClass: 1
Flags: W
LayerCount: 2
Fore
SplineSet
176.145507812 805.399414062 m 1
 127.416992188 752.387695312 l 1
 30.0009765625 752.387695312 l 1
 127.416992188 858.369140625 l 1
 224.833007812 858.369140625 l 1
 322.249023438 752.387695312 l 1
 224.833007812 752.387695312 l 1
 176.145507812 805.399414062 l 1
219.053710938 25.029296875 m 1
 262.584960938 25.0302734375 l 1
 305.701171875 0.0009765625 l 1
 175.9375 0.0009765625 l 1
 132.697265625 25.0302734375 l 1
 132.822265625 25.0302734375 l 1
 89.7060546875 50.0595703125 l 1
 89.7060546875 671.9765625 l 1
 89.5810546875 671.9765625 l 1
 46.5478515625 697.172851562 l 1
 219.01171875 697.172851562 l 1
 305.243164062 647.404296875 l 1
 219.01171875 647.404296875 l 1
 175.9375 672.309570312 l 1
 175.35546875 672.309570312 l 1
 175.9375 671.9765625 l 1
 175.9375 397.2734375 l 1
 202.671875 397.2734375 l 1
 288.903320312 347.504882812 l 1
 176.103515625 347.504882812 l 1
 175.9375 347.587890625 l 1
 175.9375 50.05859375 l 1
 219.053710938 25.029296875 l 1
EndSplineSet
Validated: 1
EndChar

StartChar: Edieresis
Encoding: 203 203 118
Width: 340
GlyphClass: 1
Flags: W
LayerCount: 2
Fore
SplineSet
132.405273438 738.084960938 m 1
 30 738.084960938 l 1
 30 840.490234375 l 1
 132.405273438 840.490234375 l 1
 132.405273438 738.084960938 l 1
310.440429688 738.084960938 m 1
 208.03515625 738.084960938 l 1
 208.03515625 840.490234375 l 1
 310.440429688 840.490234375 l 1
 310.440429688 738.084960938 l 1
223.4609375 25.1123046875 m 1
 267.200195312 25.1123046875 l 1
 310.440429688 -0.0009765625 l 1
 180.219726562 -0.0009765625 l 1
 136.854492188 25.1123046875 l 1
 136.979492188 25.1123046875 l 1
 93.697265625 50.2255859375 l 1
 93.697265625 674.263671875 l 1
 93.572265625 674.263671875 l 1
 50.373046875 699.583984375 l 1
 223.4609375 699.583984375 l 1
 309.983398438 649.649414062 l 1
 223.4609375 649.649414062 l 1
 180.178710938 674.637695312 l 1
 179.638671875 674.637695312 l 1
 180.220703125 674.263671875 l 1
 180.178710938 674.263671875 l 1
 180.178710938 398.645507812 l 1
 207.079101562 398.645507812 l 1
 293.560546875 348.668945312 l 1
 180.38671875 348.668945312 l 1
 180.178710938 348.793945312 l 1
 180.178710938 50.2255859375 l 1
 223.4609375 25.1123046875 l 1
EndSplineSet
Validated: 1
EndChar

StartChar: Igrave
Encoding: 204 204 119
Width: 311
GlyphClass: 1
Flags: W
LayerCount: 2
Fore
SplineSet
155.60546875 812.467773438 m 1
 281.2109375 739.956054688 l 1
 155.60546875 739.956054688 l 1
 30 812.467773438 l 1
 155.60546875 812.467773438 l 1
242.91796875 699.791992188 m 1
 242.709960938 649.692382812 l 1
 243.166992188 0.0009765625 l 1
 155.604492188 0.0009765625 l 1
 155.8125 50.1015625 l 1
 155.9375 50.1015625 l 1
 155.9375 649.69140625 l 1
 242.91796875 699.791992188 l 1
EndSplineSet
Validated: 1
EndChar

StartChar: Iacute
Encoding: 205 205 120
Width: 311
GlyphClass: 1
Flags: W
LayerCount: 2
Fore
SplineSet
155.60546875 820.284179688 m 1
 281.2109375 820.284179688 l 1
 155.60546875 747.772460938 l 1
 30 747.772460938 l 1
 155.60546875 820.284179688 l 1
136.6875 699.791992188 m 1
 136.479492188 649.692382812 l 1
 136.936523438 0.0009765625 l 1
 49.3740234375 0.0009765625 l 1
 49.58203125 50.1015625 l 1
 49.70703125 50.1015625 l 1
 49.70703125 649.69140625 l 1
 136.6875 699.791992188 l 1
EndSplineSet
Validated: 1
EndChar

StartChar: Icircumflex
Encoding: 206 206 121
Width: 352
GlyphClass: 1
Flags: W
LayerCount: 2
Fore
SplineSet
224.833007812 853.75390625 m 1
 322.249023438 747.772460938 l 1
 224.833007812 747.772460938 l 1
 176.145507812 800.784179688 l 1
 127.416992188 747.772460938 l 1
 30.0009765625 747.772460938 l 1
 127.416992188 853.75390625 l 1
 224.833007812 853.75390625 l 1
219.510742188 699.791992188 m 1
 219.302734375 649.732421875 l 1
 219.759765625 0 l 1
 132.197265625 -0 l 1
 132.405273438 50.1005859375 l 1
 132.530273438 50.1005859375 l 1
 132.530273438 649.732421875 l 1
 219.510742188 699.791992188 l 1
EndSplineSet
Validated: 1
EndChar

StartChar: Idieresis
Encoding: 207 207 122
Width: 340
GlyphClass: 1
Flags: W
LayerCount: 2
Fore
SplineSet
126.708984375 50.142578125 m 1
 126.709960938 649.732421875 l 1
 213.731445312 699.833007812 l 1
 213.482421875 649.732421875 l 1
 213.482421875 49.9345703125 l 1
 213.06640625 49.9345703125 l 1
 126.376953125 0 l 1
 126.625976562 50.142578125 l 1
 126.708984375 50.142578125 l 1
132.40625 741.868164062 m 1
 30.0009765625 741.868164062 l 1
 30.0009765625 844.2734375 l 1
 132.40625 844.2734375 l 1
 132.40625 741.868164062 l 1
310.44140625 741.868164062 m 1
 208.036132812 741.868164062 l 1
 208.036132812 844.2734375 l 1
 310.44140625 844.2734375 l 1
 310.44140625 741.868164062 l 1
EndSplineSet
Validated: 1
EndChar

StartChar: Ntilde
Encoding: 209 209 123
Width: 407
GlyphClass: 1
Flags: W
LayerCount: 2
Fore
SplineSet
182.0078125 785.69140625 m 1
 88 757.625976562 l 1
 29.9990234375 812.383789062 l 1
 106.54296875 835.16796875 l 1
 139.9296875 827.2265625 l 1
 139.971679688 827.184570312 l 1
 171.8203125 819.6171875 l 1
 171.9453125 819.534179688 l 1
 223.501953125 807.268554688 l 1
 223.958984375 806.811523438 l 1
 318.797851562 835.125976562 l 1
 376.798828125 780.327148438 l 1
 300.254882812 757.583984375 l 1
 267.990234375 765.234375 l 1
 268.115234375 765.151367188 l 1
 216.392578125 777.416992188 l 1
 216.309570312 777.541992188 l 1
 182.0078125 785.69140625 l 1
116.938476562 675.260742188 m 1
 160.51171875 700.415039062 l 1
 247.159179688 700.415039062 l 1
 159.513671875 650.106445312 l 1
 159.638671875 0.20703125 l 1
 72.4501953125 0.041015625 l 1
 72.3671875 700.415039062 l 1
 158.557617188 650.646484375 l 1
 116.938476562 675.260742188 l 1
247.159179688 700.415039062 m 1
 334.34765625 650.106445312 l 1
 334.430664062 0.20703125 l 1
 247.284179688 -0.0009765625 l 1
 247.159179688 700.415039062 l 1
EndSplineSet
Validated: 5
EndChar

StartChar: Ograve
Encoding: 210 210 124
Width: 356
GlyphClass: 1
Flags: W
LayerCount: 2
Fore
SplineSet
239.55078125 699.168945312 m 1
 153.028320312 649.192382812 l 1
 153.028320312 0 l 1
 66.546875 0.2080078125 l 1
 66.546875 649.192382812 l 1
 153.028320312 699.168945312 l 1
 239.55078125 699.168945312 l 1
239.55078125 698.9609375 m 1
 326.032226562 699.168945312 l 1
 326.032226562 49.9345703125 l 1
 239.55078125 0 l 1
 153.028320312 -0 l 1
 239.55078125 49.9345703125 l 1
 239.55078125 698.9609375 l 1
281.211914062 746.401367188 m 1
 155.606445312 746.401367188 l 1
 30.0009765625 818.913085938 l 1
 155.606445312 818.913085938 l 1
 281.211914062 746.401367188 l 1
EndSplineSet
Validated: 5
EndChar

StartChar: Oacute
Encoding: 211 211 125
Width: 358
GlyphClass: 1
Flags: W
LayerCount: 2
Fore
SplineSet
203.00390625 699.126953125 m 1
 116.522460938 649.192382812 l 1
 116.522460938 0 l 1
 30 0.2080078125 l 1
 30 649.192382812 l 1
 116.522460938 699.126953125 l 1
 203.00390625 699.126953125 l 1
203.00390625 49.9345703125 m 1
 203.00390625 698.919921875 l 1
 289.526367188 699.168945312 l 1
 289.526367188 49.9345703125 l 1
 203.00390625 0 l 1
 116.522460938 -0 l 1
 203.00390625 49.9345703125 l 1
327.819335938 827.810546875 m 1
 202.213867188 755.298828125 l 1
 76.6083984375 755.298828125 l 1
 202.213867188 827.810546875 l 1
 327.819335938 827.810546875 l 1
EndSplineSet
Validated: 5
EndChar

StartChar: Ocircumflex
Encoding: 212 212 126
Width: 352
GlyphClass: 1
Flags: W
LayerCount: 2
Fore
SplineSet
219.385742188 699.168945312 m 1
 132.86328125 649.235351562 l 1
 132.86328125 0.0009765625 l 1
 46.3818359375 0.25 l 1
 46.3818359375 649.234375 l 1
 132.86328125 699.168945312 l 1
 219.385742188 699.168945312 l 1
219.385742188 49.9775390625 m 1
 219.385742188 698.961914062 l 1
 305.908203125 699.169921875 l 1
 305.908203125 49.9775390625 l 1
 219.385742188 0.0009765625 l 1
 132.86328125 0.0009765625 l 1
 219.385742188 49.9775390625 l 1
176.145507812 804.111328125 m 1
 127.416992188 751.099609375 l 1
 30.0009765625 751.099609375 l 1
 127.416992188 857.081054688 l 1
 224.833007812 857.081054688 l 1
 322.249023438 751.099609375 l 1
 224.833007812 751.099609375 l 1
 176.145507812 804.111328125 l 1
EndSplineSet
Validated: 5
EndChar

StartChar: Otilde
Encoding: 213 213 127
Width: 407
GlyphClass: 1
Flags: W
LayerCount: 2
Fore
SplineSet
246.744140625 699.126953125 m 1
 160.262695312 649.192382812 l 1
 160.262695312 0 l 1
 73.740234375 0.2080078125 l 1
 73.740234375 649.192382812 l 1
 160.262695312 699.126953125 l 1
 246.744140625 699.126953125 l 1
246.744140625 49.9345703125 m 1
 246.744140625 698.918945312 l 1
 333.266601562 699.126953125 l 1
 333.266601562 49.9345703125 l 1
 246.744140625 0 l 1
 160.262695312 -0 l 1
 246.744140625 49.9345703125 l 1
182.0078125 780.868164062 m 1
 88 752.802734375 l 1
 29.9990234375 807.560546875 l 1
 106.54296875 830.344726562 l 1
 139.9296875 822.403320312 l 1
 139.971679688 822.361328125 l 1
 171.8203125 814.793945312 l 1
 171.9453125 814.7109375 l 1
 223.501953125 802.4453125 l 1
 223.958984375 801.98828125 l 1
 318.797851562 830.302734375 l 1
 376.798828125 775.50390625 l 1
 300.254882812 752.760742188 l 1
 267.990234375 760.411132812 l 1
 268.115234375 760.328125 l 1
 216.392578125 772.59375 l 1
 216.309570312 772.71875 l 1
 182.0078125 780.868164062 l 1
EndSplineSet
Validated: 5
EndChar

StartChar: Odieresis
Encoding: 214 214 128
Width: 340
GlyphClass: 1
Flags: W
LayerCount: 2
Fore
SplineSet
213.565429688 699.168945312 m 1
 127.04296875 649.235351562 l 1
 127.04296875 0.0009765625 l 1
 40.5205078125 0.25 l 1
 40.5205078125 649.234375 l 1
 127.04296875 699.168945312 l 1
 213.565429688 699.168945312 l 1
213.565429688 49.9775390625 m 1
 213.565429688 698.961914062 l 1
 300.046875 699.169921875 l 1
 300.046875 49.9775390625 l 1
 213.565429688 0.0009765625 l 1
 127.04296875 0.0009765625 l 1
 213.565429688 49.9775390625 l 1
132.40625 752.887695312 m 1
 30.0009765625 752.887695312 l 1
 30.0009765625 855.29296875 l 1
 132.40625 855.29296875 l 1
 132.40625 752.887695312 l 1
310.44140625 752.887695312 m 1
 208.036132812 752.887695312 l 1
 208.036132812 855.29296875 l 1
 310.44140625 855.29296875 l 1
 310.44140625 752.887695312 l 1
EndSplineSet
Validated: 5
EndChar

StartChar: Oslash
Encoding: 216 216 129
Width: 659
GlyphClass: 1
Flags: W
LayerCount: 2
Fore
SplineSet
628.55078125 700.291015625 m 1
 480.451171875 511.155273438 l 1
 480.451171875 49.935546875 l 1
 393.928710938 0.0009765625 l 1
 307.447265625 0.0009765625 l 1
 393.928710938 49.935546875 l 1
 393.928710938 400.68359375 l 1
 307.447265625 290.25390625 l 1
 307.447265625 0.0009765625 l 1
 220.924804688 0.208984375 l 1
 220.924804688 179.782226562 l 1
 80.517578125 0.5 l 1
 30.0009765625 0.5 l 1
 220.924804688 244.26953125 l 1
 220.924804688 649.193359375 l 1
 307.447265625 699.127929688 l 1
 393.928710938 699.127929688 l 1
 307.447265625 649.193359375 l 1
 307.447265625 354.69921875 l 1
 393.928710938 465.170898438 l 1
 393.928710938 698.919921875 l 1
 480.451171875 699.168945312 l 1
 480.451171875 575.641601562 l 1
 578.075195312 700.291015625 l 1
 628.55078125 700.291015625 l 1
EndSplineSet
Validated: 5
EndChar

StartChar: Ugrave
Encoding: 217 217 130
Width: 343
GlyphClass: 1
Flags: W
LayerCount: 2
Fore
SplineSet
145.377929688 651.645507812 m 1
 145.377929688 48.521484375 l 1
 229.40625 48.521484375 l 1
 145.377929688 0 l 1
 61.349609375 0 l 1
 61.6826171875 0.2080078125 l 1
 61.349609375 0.2080078125 l 1
 61.349609375 651.645507812 l 1
 145.377929688 651.645507812 l 1
313.434570312 48.521484375 m 1
 229.40625 48.521484375 l 1
 229.40625 700.041992188 l 1
 313.434570312 700.041992188 l 1
 313.434570312 48.521484375 l 1
281.211914062 746.193359375 m 1
 155.606445312 746.193359375 l 1
 30.0009765625 818.705078125 l 1
 155.606445312 818.705078125 l 1
 281.211914062 746.193359375 l 1
EndSplineSet
Validated: 5
EndChar

StartChar: Uacute
Encoding: 218 218 131
Width: 354
GlyphClass: 1
Flags: W
LayerCount: 2
Fore
SplineSet
114.028320312 651.645507812 m 1
 114.028320312 48.5224609375 l 1
 198.056640625 48.5224609375 l 1
 114.028320312 0.0009765625 l 1
 30 0.0009765625 l 1
 30.3740234375 0.25 l 1
 30 0.25 l 1
 30 651.645507812 l 1
 114.028320312 651.645507812 l 1
282.084960938 48.564453125 m 1
 198.056640625 48.564453125 l 1
 198.056640625 700.084960938 l 1
 282.084960938 700.084960938 l 1
 282.084960938 48.564453125 l 1
323.662109375 818.7890625 m 1
 198.056640625 746.27734375 l 1
 72.451171875 746.27734375 l 1
 198.056640625 818.7890625 l 1
 323.662109375 818.7890625 l 1
EndSplineSet
Validated: 1
EndChar

StartChar: Ucircumflex
Encoding: 219 219 132
Width: 352
GlyphClass: 1
Flags: W
LayerCount: 2
Fore
SplineSet
134.193359375 651.603515625 m 1
 134.193359375 48.521484375 l 1
 218.221679688 48.521484375 l 1
 134.193359375 0 l 1
 50.1650390625 0 l 1
 50.498046875 0.2080078125 l 1
 50.1650390625 0.2080078125 l 1
 50.1650390625 651.603515625 l 1
 134.193359375 651.603515625 l 1
302.25 48.521484375 m 1
 218.221679688 48.521484375 l 1
 218.221679688 700.041992188 l 1
 302.25 700.041992188 l 1
 302.25 48.521484375 l 1
176.145507812 796.376953125 m 1
 127.416992188 743.365234375 l 1
 30.0009765625 743.365234375 l 1
 127.416992188 849.346679688 l 1
 224.833007812 849.346679688 l 1
 322.291015625 743.365234375 l 1
 224.833007812 743.365234375 l 1
 176.145507812 796.376953125 l 1
EndSplineSet
Validated: 5
EndChar

StartChar: Udieresis
Encoding: 220 220 133
Width: 340
GlyphClass: 1
Flags: W
LayerCount: 2
Fore
SplineSet
128.206054688 651.603515625 m 1
 128.206054688 48.4794921875 l 1
 212.234375 48.4794921875 l 1
 128.206054688 0 l 1
 44.177734375 0 l 1
 44.5517578125 0.2080078125 l 1
 44.177734375 0.2080078125 l 1
 44.177734375 651.603515625 l 1
 128.206054688 651.603515625 l 1
296.262695312 48.521484375 m 1
 212.234375 48.521484375 l 1
 212.234375 700.041992188 l 1
 296.262695312 700.041992188 l 1
 296.262695312 48.521484375 l 1
132.405273438 745.154296875 m 1
 30 745.154296875 l 1
 30 847.559570312 l 1
 132.405273438 847.559570312 l 1
 132.405273438 745.154296875 l 1
310.440429688 745.154296875 m 1
 208.03515625 745.154296875 l 1
 208.03515625 847.559570312 l 1
 310.440429688 847.559570312 l 1
 310.440429688 745.154296875 l 1
EndSplineSet
Validated: 1
EndChar

StartChar: Yacute
Encoding: 221 221 134
Width: 376
GlyphClass: 1
Flags: W
LayerCount: 2
Fore
SplineSet
203.419921875 351.0390625 m 1
 204.293945312 650.9375 l 1
 290.858398438 700.9140625 l 1
 289.985351562 350.041015625 l 1
 204.251953125 350.041015625 l 1
 203.336914062 50.017578125 l 1
 116.814453125 0 l 1
 117.645507812 350.915039062 l 1
 116.98046875 350.915039062 l 1
 30.3740234375 400.932617188 l 1
 30 702.661132812 l 1
 116.564453125 652.684570312 l 1
 116.98046875 400.932617188 l 1
 203.419921875 351.0390625 l 1
346.032226562 822.029296875 m 1
 220.426757812 749.517578125 l 1
 94.8212890625 749.517578125 l 1
 220.426757812 822.029296875 l 1
 346.032226562 822.029296875 l 1
EndSplineSet
Validated: 1
EndChar

StartChar: agrave
Encoding: 224 224 135
Width: 427
GlyphClass: 1
Flags: W
LayerCount: 2
Fore
SplineSet
313.850585938 48.6044921875 m 1
 397.462890625 48.603515625 l 1
 313.850585938 0.33203125 l 1
 313.850585938 0.0830078125 l 1
 230.196289062 0.0830078125 l 1
 230.196289062 48.8115234375 l 1
 147 0.748046875 l 1
 146.126953125 0.748046875 l 1
 146.126953125 0 l 1
 62.47265625 -0 l 1
 62.47265625 241.856445312 l 1
 62.5146484375 241.856445312 l 1
 62.5146484375 242.022460938 l 1
 146.168945312 290.293945312 l 1
 229.78125 290.293945312 l 1
 146.168945312 242.022460938 l 1
 146.54296875 222.314453125 l 1
 146.126953125 222.314453125 l 1
 146.126953125 48.5205078125 l 1
 147 49.01953125 l 1
 230.196289062 49.01953125 l 1
 230.196289062 507.080078125 l 1
 313.850585938 459.099609375 l 1
 313.850585938 48.6044921875 l 1
62.9296875 458.807617188 m 1
 146.541992188 507.079101562 l 1
 230.196289062 507.079101562 l 1
 146.541992188 458.807617188 l 1
 146.541992188 362.22265625 l 1
 62.9296875 362.22265625 l 1
 62.9296875 458.807617188 l 1
281.211914062 568.364257812 m 1
 155.606445312 568.364257812 l 1
 30.0009765625 640.875976562 l 1
 155.606445312 640.875976562 l 1
 281.211914062 568.364257812 l 1
EndSplineSet
Validated: 5
EndChar

StartChar: aacute
Encoding: 225 225 136
Width: 395
GlyphClass: 1
Flags: W
LayerCount: 2
Fore
SplineSet
281.377929688 48.6044921875 m 1
 364.98828125 48.6025390625 l 1
 281.375976562 0.3310546875 l 1
 281.375976562 0.08203125 l 1
 197.721679688 0.08203125 l 1
 197.721679688 48.76953125 l 1
 114.525390625 0.7470703125 l 1
 113.610351562 0.7470703125 l 1
 113.610351562 -0.0009765625 l 1
 29.998046875 -0.0009765625 l 1
 29.998046875 241.85546875 l 1
 30.0400390625 241.85546875 l 1
 30.0400390625 241.98046875 l 1
 41.931640625 248.8828125 l 1
 113.653320312 290.293945312 l 1
 197.307617188 290.293945312 l 1
 125.544921875 248.8828125 l 1
 113.653320312 241.98046875 l 1
 114.069335938 224.892578125 l 1
 113.612304688 224.892578125 l 1
 113.612304688 48.5205078125 l 1
 114.52734375 49.01953125 l 1
 197.723632812 49.01953125 l 1
 197.723632812 507.080078125 l 1
 281.377929688 459.099609375 l 1
 281.377929688 48.6044921875 l 1
114.067382812 458.806640625 m 1
 114.067382812 362.221679688 l 1
 30.455078125 362.221679688 l 1
 30.455078125 458.806640625 l 1
 114.067382812 507.078125 l 1
 197.721679688 507.078125 l 1
 114.067382812 458.806640625 l 1
314.512695312 640.833007812 m 1
 188.907226562 568.321289062 l 1
 63.3017578125 568.321289062 l 1
 188.907226562 640.833007812 l 1
 314.512695312 640.833007812 l 1
EndSplineSet
Validated: 1
EndChar

StartChar: acircumflex
Encoding: 226 226 137
Width: 399
GlyphClass: 1
Flags: W
LayerCount: 2
Fore
SplineSet
285.494140625 48.6044921875 m 1
 369.10546875 48.603515625 l 1
 285.493164062 0.33203125 l 1
 285.493164062 0.0830078125 l 1
 201.838867188 0.0830078125 l 1
 201.838867188 48.7705078125 l 1
 118.642578125 0.748046875 l 1
 117.727539062 0.748046875 l 1
 117.727539062 0 l 1
 34.115234375 -0 l 1
 34.115234375 241.856445312 l 1
 34.1572265625 241.856445312 l 1
 34.1572265625 242.022460938 l 1
 117.76953125 290.293945312 l 1
 201.423828125 290.293945312 l 1
 117.76953125 242.022460938 l 1
 118.185546875 222.896484375 l 1
 117.728515625 222.896484375 l 1
 117.728515625 48.5205078125 l 1
 118.643554688 49.01953125 l 1
 201.83984375 49.01953125 l 1
 201.83984375 507.080078125 l 1
 285.494140625 459.099609375 l 1
 285.494140625 48.6044921875 l 1
34.572265625 458.807617188 m 1
 118.184570312 507.079101562 l 1
 201.838867188 507.079101562 l 1
 118.184570312 458.807617188 l 1
 118.184570312 362.22265625 l 1
 34.572265625 362.22265625 l 1
 34.572265625 458.807617188 l 1
176.143554688 621.29296875 m 1
 127.415039062 568.28125 l 1
 29.9990234375 568.28125 l 1
 127.415039062 674.262695312 l 1
 224.831054688 674.262695312 l 1
 322.247070312 568.28125 l 1
 224.831054688 568.28125 l 1
 176.143554688 621.29296875 l 1
EndSplineSet
Validated: 1
EndChar

StartChar: atilde
Encoding: 227 227 138
Width: 431
GlyphClass: 1
Flags: W
LayerCount: 2
Fore
SplineSet
317.134765625 48.6044921875 m 1
 400.747070312 48.6025390625 l 1
 317.134765625 0.3310546875 l 1
 317.134765625 0.08203125 l 1
 233.48046875 0.08203125 l 1
 233.48046875 48.810546875 l 1
 150.284179688 0.7470703125 l 1
 149.369140625 0.7470703125 l 1
 149.369140625 -0.0009765625 l 1
 65.7568359375 -0.0009765625 l 1
 65.7568359375 241.897460938 l 1
 65.798828125 241.897460938 l 1
 65.798828125 242.022460938 l 1
 78.4384765625 249.33984375 l 1
 149.411132812 290.293945312 l 1
 233.065429688 290.293945312 l 1
 149.411132812 242.022460938 l 1
 149.369140625 228.176757812 l 1
 149.369140625 48.5205078125 l 1
 150.284179688 49.01953125 l 1
 233.48046875 49.01953125 l 1
 233.48046875 507.080078125 l 1
 317.134765625 459.099609375 l 1
 317.134765625 48.6044921875 l 1
66.2138671875 458.806640625 m 1
 149.826171875 507.078125 l 1
 233.48046875 507.078125 l 1
 149.826171875 458.806640625 l 1
 149.826171875 362.221679688 l 1
 66.2138671875 362.221679688 l 1
 66.2138671875 458.806640625 l 1
182.006835938 610.647460938 m 1
 87.9990234375 582.581054688 l 1
 29.998046875 637.379882812 l 1
 106.541992188 660.123046875 l 1
 139.928710938 652.181640625 l 1
 139.970703125 652.181640625 l 1
 171.819335938 644.573242188 l 1
 171.944335938 644.490234375 l 1
 223.500976562 632.224609375 l 1
 223.958007812 631.767578125 l 1
 318.796875 660.08203125 l 1
 376.797851562 605.283203125 l 1
 300.25390625 582.540039062 l 1
 267.989257812 590.190429688 l 1
 268.114257812 590.107421875 l 1
 216.391601562 602.373046875 l 1
 216.30859375 602.498046875 l 1
 182.006835938 610.647460938 l 1
EndSplineSet
Validated: 5
EndChar

StartChar: adieresis
Encoding: 228 228 139
Width: 397
GlyphClass: 1
Flags: W
LayerCount: 2
Fore
SplineSet
283.7890625 48.6044921875 m 1
 367.401367188 48.603515625 l 1
 283.7890625 0.33203125 l 1
 283.7890625 0.0830078125 l 1
 200.134765625 0.0830078125 l 1
 200.134765625 48.7705078125 l 1
 116.938476562 0.748046875 l 1
 116.065429688 0.748046875 l 1
 116.065429688 0 l 1
 32.4111328125 -0 l 1
 32.4111328125 241.856445312 l 1
 32.453125 241.856445312 l 1
 32.453125 242.022460938 l 1
 116.065429688 290.293945312 l 1
 199.719726562 290.293945312 l 1
 124.172851562 246.678710938 l 1
 116.065429688 242.022460938 l 1
 116.065429688 48.5205078125 l 1
 116.938476562 49.01953125 l 1
 200.134765625 49.01953125 l 1
 200.134765625 507.080078125 l 1
 283.7890625 459.099609375 l 1
 283.7890625 48.6044921875 l 1
32.8681640625 458.807617188 m 1
 116.48046875 507.079101562 l 1
 200.134765625 507.079101562 l 1
 116.48046875 458.807617188 l 1
 116.48046875 362.22265625 l 1
 32.8681640625 362.22265625 l 1
 32.8681640625 458.807617188 l 1
132.404296875 564.997070312 m 1
 29.9990234375 564.997070312 l 1
 29.9990234375 667.40234375 l 1
 132.404296875 667.40234375 l 1
 132.404296875 564.997070312 l 1
310.439453125 564.997070312 m 1
 208.034179688 564.997070312 l 1
 208.034179688 667.40234375 l 1
 310.439453125 667.40234375 l 1
 310.439453125 564.997070312 l 1
EndSplineSet
Validated: 5
EndChar

StartChar: aring
Encoding: 229 229 140
Width: 395
GlyphClass: 1
Flags: W
LayerCount: 2
Fore
SplineSet
281.377929688 48.6044921875 m 1
 364.990234375 48.6044921875 l 1
 281.377929688 0.3330078125 l 1
 281.377929688 0.0419921875 l 1
 197.723632812 0.0419921875 l 1
 197.723632812 48.7705078125 l 1
 114.52734375 0.748046875 l 1
 113.654296875 0.748046875 l 1
 113.654296875 0 l 1
 30 -0 l 1
 30 241.856445312 l 1
 30.0419921875 241.856445312 l 1
 30.0419921875 241.981445312 l 1
 113.654296875 290.294921875 l 1
 197.30859375 290.294921875 l 1
 121.76171875 246.6796875 l 1
 113.654296875 241.981445312 l 1
 113.654296875 48.5205078125 l 1
 114.52734375 49.01953125 l 1
 197.723632812 49.01953125 l 1
 197.723632812 507.080078125 l 1
 281.377929688 459.099609375 l 1
 281.377929688 48.6044921875 l 1
114.069335938 458.767578125 m 1
 114.069335938 362.224609375 l 1
 30.45703125 362.224609375 l 1
 30.45703125 458.767578125 l 1
 114.069335938 507.081054688 l 1
 197.723632812 507.081054688 l 1
 114.069335938 458.767578125 l 1
154.7734375 638.756835938 m 1
 154.774414062 527.12109375 l 1
 124.962890625 527.163085938 l 1
 124.962890625 638.756835938 l 1
 125.12890625 638.756835938 l 1
 154.940429688 655.969726562 l 1
 184.79296875 655.969726562 l 1
 184.66796875 655.927734375 l 1
 214.4375 655.969726562 l 1
 214.4375 544.333984375 l 1
 184.625976562 527.12109375 l 1
 154.7734375 527.12109375 l 1
 184.625976562 544.333984375 l 1
 184.625976562 655.88671875 l 1
 154.939453125 638.756835938 l 1
 154.7734375 638.756835938 l 1
EndSplineSet
Validated: 5
EndChar

StartChar: ae
Encoding: 230 230 141
Width: 480
GlyphClass: 1
Flags: W
LayerCount: 2
Fore
SplineSet
450.266601562 458.600585938 m 1
 450.30859375 216.577148438 l 1
 366.61328125 216.577148438 l 1
 366.61328125 217.325195312 l 1
 365.740234375 217.325195312 l 1
 282.044921875 265.638671875 l 1
 365.740234375 265.638671875 l 1
 366.61328125 265.139648438 l 1
 366.61328125 446.084960938 l 1
 366.571289062 458.724609375 l 1
 282.916992188 507.038085938 l 1
 366.571289062 507.038085938 l 1
 438.541992188 465.4609375 l 1
 450.266601562 458.725585938 l 1
 450.266601562 458.600585938 l 1
281.37890625 265.763671875 m 1
 281.543945312 265.763671875 l 1
 281.876953125 -0 l 1
 281.377929688 0.291015625 l 1
 281.377929688 0.166015625 l 1
 197.723632812 0.166015625 l 1
 197.723632812 48.853515625 l 1
 114.52734375 0.8310546875 l 1
 113.654296875 0.8310546875 l 1
 113.654296875 0.0830078125 l 1
 30 0.0830078125 l 1
 30 241.939453125 l 1
 30.0419921875 241.939453125 l 1
 30.0419921875 242.10546875 l 1
 113.654296875 290.376953125 l 1
 197.30859375 290.376953125 l 1
 121.76171875 246.76171875 l 1
 113.654296875 242.10546875 l 1
 113.654296875 48.603515625 l 1
 114.52734375 49.1025390625 l 1
 197.723632812 49.1025390625 l 1
 197.723632812 507.163085938 l 1
 239.67578125 483.08984375 l 1
 281.627929688 507.163085938 l 1
 281.37890625 265.763671875 l 1
281.876953125 -0 m 1
 365.032226562 48.3134765625 l 1
 448.727539062 48.3134765625 l 1
 365.032226562 0 l 1
 281.876953125 -0 l 1
114.0703125 458.891601562 m 1
 114.0703125 362.306640625 l 1
 30.4580078125 362.306640625 l 1
 30.4580078125 458.891601562 l 1
 114.0703125 507.163085938 l 1
 197.724609375 507.163085938 l 1
 114.0703125 458.891601562 l 1
EndSplineSet
Validated: 5
EndChar

StartChar: ccedilla
Encoding: 231 231 142
Width: 311
GlyphClass: 1
Flags: W
LayerCount: 2
Fore
SplineSet
113.487304688 505.831054688 m 1
 113.487304688 -1.33203125 l 1
 30 47.396484375 l 1
 30 457.309570312 l 1
 113.487304688 505.831054688 l 1
113.487304688 -1.33203125 m 1
 197.017578125 46.8564453125 l 1
 280.504882812 46.8564453125 l 1
 197.017578125 -1.33203125 l 1
 171.073242188 -1.33203125 l 1
 171.073242188 -48.9794921875 l 1
 134.15234375 -97.9990234375 l 1
 102.178710938 -97.9990234375 l 1
 123.424804688 -48.9794921875 l 1
 123.424804688 -1.33203125 l 1
 113.487304688 -1.33203125 l 1
280.504882812 457.01953125 m 1
 197.017578125 457.01953125 l 1
 113.48828125 505.208007812 l 1
 197.017578125 505.208007812 l 1
 280.504882812 457.01953125 l 1
EndSplineSet
Validated: 5
EndChar

StartChar: egrave
Encoding: 232 232 143
Width: 342
GlyphClass: 1
Flags: W
LayerCount: 2
Fore
SplineSet
312.270507812 458.600585938 m 1
 312.311523438 216.578125 l 1
 228.616210938 216.578125 l 1
 228.616210938 217.326171875 l 1
 227.743164062 217.326171875 l 1
 144.047851562 265.639648438 l 1
 227.743164062 265.639648438 l 1
 228.616210938 265.140625 l 1
 228.616210938 458.725585938 l 1
 144.920898438 507.0390625 l 1
 228.616210938 507.0390625 l 1
 300.586914062 465.502929688 l 1
 312.270507812 458.725585938 l 1
 312.270507812 458.600585938 l 1
143.381835938 265.764648438 m 1
 143.547851562 265.763671875 l 1
 143.880859375 0 l 1
 59.76953125 48.10546875 l 1
 59.7275390625 265.639648438 l 1
 59.935546875 459.141601562 l 1
 143.630859375 507.1640625 l 1
 143.381835938 265.764648438 l 1
143.880859375 -0 m 1
 227.036132812 48.3134765625 l 1
 310.731445312 48.3134765625 l 1
 227.036132812 0 l 1
 143.880859375 -0 l 1
281.211914062 579.092773438 m 1
 155.606445312 579.092773438 l 1
 30.0009765625 651.604492188 l 1
 155.606445312 651.604492188 l 1
 281.211914062 579.092773438 l 1
EndSplineSet
Validated: 5
EndChar

StartChar: eacute
Encoding: 233 233 144
Width: 326
GlyphClass: 1
Flags: W
LayerCount: 2
Fore
SplineSet
113.6953125 265.763671875 m 1
 113.862304688 265.762695312 l 1
 114.153320312 -0.0009765625 l 1
 30.0419921875 48.1044921875 l 1
 30 265.638671875 l 1
 30.2490234375 459.140625 l 1
 113.903320312 507.163085938 l 1
 113.6953125 265.763671875 l 1
114.153320312 -0.0009765625 m 1
 197.30859375 48.3125 l 1
 281.00390625 48.3125 l 1
 197.30859375 -0.0009765625 l 1
 114.153320312 -0.0009765625 l 1
295.514648438 651.603515625 m 1
 169.909179688 579.091796875 l 1
 44.3037109375 579.091796875 l 1
 169.909179688 651.603515625 l 1
 295.514648438 651.603515625 l 1
282.54296875 458.724609375 m 1
 282.54296875 458.599609375 l 1
 282.584960938 458.599609375 l 1
 282.584960938 216.576171875 l 1
 198.930664062 216.576171875 l 1
 198.930664062 217.32421875 l 1
 198.015625 217.32421875 l 1
 114.361328125 265.637695312 l 1
 198.015625 265.637695312 l 1
 198.930664062 265.138671875 l 1
 198.930664062 449.369140625 l 1
 198.888671875 458.723632812 l 1
 115.193359375 507.037109375 l 1
 198.888671875 507.037109375 l 1
 274.268554688 463.505859375 l 1
 282.54296875 458.724609375 l 1
EndSplineSet
Validated: 5
EndChar

StartChar: ecircumflex
Encoding: 234 234 145
Width: 352
GlyphClass: 1
Flags: W
LayerCount: 2
Fore
SplineSet
131.657226562 265.763671875 m 1
 131.82421875 265.763671875 l 1
 132.157226562 -0 l 1
 48.00390625 48.0634765625 l 1
 47.9619140625 265.638671875 l 1
 48.2109375 459.140625 l 1
 131.90625 507.163085938 l 1
 131.657226562 265.763671875 l 1
132.157226562 -0 m 1
 215.3125 48.3134765625 l 1
 298.966796875 48.3134765625 l 1
 215.3125 0 l 1
 132.157226562 -0 l 1
176.146484375 632.0625 m 1
 127.41796875 579.05078125 l 1
 30.001953125 579.05078125 l 1
 127.41796875 685.032226562 l 1
 224.833984375 685.032226562 l 1
 322.25 579.05078125 l 1
 224.833984375 579.05078125 l 1
 176.146484375 632.0625 l 1
300.546875 458.68359375 m 1
 300.545898438 458.55859375 l 1
 300.587890625 458.55859375 l 1
 300.587890625 216.577148438 l 1
 216.892578125 216.577148438 l 1
 216.892578125 217.325195312 l 1
 215.977539062 217.325195312 l 1
 132.323242188 265.638671875 l 1
 215.977539062 265.638671875 l 1
 216.892578125 265.098632812 l 1
 216.892578125 453.819335938 l 1
 216.850585938 458.68359375 l 1
 133.155273438 506.997070312 l 1
 216.850585938 506.997070312 l 1
 293.1875 462.924804688 l 1
 300.546875 458.68359375 l 1
EndSplineSet
Validated: 5
EndChar

StartChar: igrave
Encoding: 236 236 146
Width: 311
GlyphClass: 1
Flags: W
LayerCount: 2
Fore
SplineSet
231.02734375 508.161132812 m 1
 230.860351562 421.971679688 l 1
 230.818359375 412.159179688 l 1
 231.026367188 412.2421875 l 1
 230.860351562 372.619140625 l 1
 230.860351562 0.0009765625 l 1
 133.319335938 0.1669921875 l 1
 133.319335938 324.09765625 l 1
 133.236328125 324.055664062 l 1
 133.236328125 351.538085938 l 1
 133.278320312 351.538085938 l 1
 133.444335938 451.823242188 l 1
 231.02734375 508.161132812 l 1
281.2109375 568.865234375 m 1
 155.60546875 568.865234375 l 1
 30 641.376953125 l 1
 155.60546875 641.376953125 l 1
 281.2109375 568.865234375 l 1
EndSplineSet
Validated: 1
EndChar

StartChar: iacute
Encoding: 237 237 147
Width: 311
GlyphClass: 1
Flags: W
LayerCount: 2
Fore
SplineSet
89.373046875 451.823242188 m 1
 186.915039062 508.161132812 l 1
 186.749023438 404.923828125 l 1
 186.915039062 405.006835938 l 1
 186.915039062 383.178710938 l 1
 186.790039062 383.095703125 l 1
 186.790039062 -0 l 1
 89.20703125 0.166015625 l 1
 89.20703125 323.84765625 l 1
 89.1650390625 323.805664062 l 1
 89.1650390625 347.795898438 l 1
 89.373046875 451.823242188 l 1
281.212890625 641.375976562 m 1
 155.607421875 568.864257812 l 1
 30.001953125 568.864257812 l 1
 155.607421875 641.375976562 l 1
 281.212890625 641.375976562 l 1
EndSplineSet
Validated: 1
EndChar

StartChar: icircumflex
Encoding: 238 238 148
Width: 352
GlyphClass: 1
Flags: W
LayerCount: 2
Fore
SplineSet
121.63671875 451.782226562 m 1
 219.177734375 508.119140625 l 1
 219.01171875 412.407226562 l 1
 219.053710938 412.44921875 l 1
 219.053710938 0 l 1
 121.470703125 0.125 l 1
 121.470703125 317.819335938 l 1
 121.428710938 317.77734375 l 1
 121.428710938 359.6875 l 1
 121.470703125 359.6875 l 1
 121.63671875 451.782226562 l 1
224.83203125 674.803710938 m 1
 322.248046875 568.822265625 l 1
 224.83203125 568.822265625 l 1
 176.14453125 621.833984375 l 1
 127.416015625 568.822265625 l 1
 30 568.822265625 l 1
 127.416015625 674.803710938 l 1
 224.83203125 674.803710938 l 1
EndSplineSet
Validated: 1
EndChar

StartChar: ntilde
Encoding: 241 241 149
Width: 407
GlyphClass: 1
Flags: W
LayerCount: 2
Fore
SplineSet
127.083984375 488.620117188 m 1
 162.549804688 509.075195312 l 1
 246.12109375 509.075195312 l 1
 168.662109375 464.62890625 l 1
 161.59375 460.595703125 l 1
 161.59375 0.166015625 l 1
 77.607421875 -0 l 1
 77.607421875 509.1171875 l 1
 120.141601562 484.544921875 l 1
 120.598632812 484.793945312 l 1
 120.556640625 484.8359375 l 1
 127.000976562 488.578125 l 1
 127.083984375 488.620117188 l 1
246.12109375 -0.0009765625 m 1
 246.12109375 509.07421875 l 1
 330.107421875 460.594726562 l 1
 330.107421875 0.1650390625 l 1
 246.12109375 -0.0009765625 l 1
182.008789062 623.24609375 m 1
 88.0009765625 595.180664062 l 1
 30 649.938476562 l 1
 106.543945312 672.72265625 l 1
 139.930664062 664.78125 l 1
 139.97265625 664.739257812 l 1
 171.821289062 657.171875 l 1
 171.946289062 657.088867188 l 1
 223.502929688 644.823242188 l 1
 223.959960938 644.366210938 l 1
 318.798828125 672.680664062 l 1
 376.799804688 617.881835938 l 1
 300.255859375 595.138671875 l 1
 267.991210938 602.7890625 l 1
 268.116210938 602.706054688 l 1
 216.393554688 614.971679688 l 1
 216.310546875 615.096679688 l 1
 182.008789062 623.24609375 l 1
EndSplineSet
Validated: 1
EndChar

StartChar: ograve
Encoding: 242 242 150
Width: 348
GlyphClass: 1
Flags: W
LayerCount: 2
Fore
SplineSet
234.852539062 507.080078125 m 1
 318.381835938 507.204101562 l 1
 318.381835938 48.353515625 l 1
 234.64453125 -0.0009765625 l 1
 150.94921875 -0.0009765625 l 1
 214.479492188 36.6708984375 l 1
 234.64453125 48.3544921875 l 1
 234.64453125 506.955078125 l 1
 151.40625 458.891601562 l 1
 150.94921875 458.891601562 l 1
 150.94921875 -0 l 1
 67.2119140625 0.166015625 l 1
 67.2119140625 458.891601562 l 1
 67.7109375 458.891601562 l 1
 151.40625 507.24609375 l 1
 235.1015625 507.24609375 l 1
 234.852539062 507.080078125 l 1
281.211914062 576.638671875 m 1
 155.606445312 576.638671875 l 1
 30.0009765625 649.150390625 l 1
 155.606445312 649.150390625 l 1
 281.211914062 576.638671875 l 1
EndSplineSet
Validated: 1
EndChar

StartChar: oacute
Encoding: 243 243 151
Width: 318
GlyphClass: 1
Flags: W
LayerCount: 2
Fore
SplineSet
197.890625 507.24609375 m 1
 197.599609375 507.080078125 l 1
 281.12890625 507.205078125 l 1
 281.12890625 48.3544921875 l 1
 197.43359375 0 l 1
 113.696289062 -0 l 1
 197.43359375 48.3544921875 l 1
 197.43359375 506.955078125 l 1
 114.153320312 458.891601562 l 1
 113.696289062 458.891601562 l 1
 113.696289062 -0 l 1
 30.0009765625 0.166015625 l 1
 30.0009765625 458.891601562 l 1
 30.4580078125 458.891601562 l 1
 114.153320312 507.24609375 l 1
 197.890625 507.24609375 l 1
288.072265625 649.150390625 m 1
 162.466796875 576.638671875 l 1
 36.861328125 576.638671875 l 1
 162.466796875 649.150390625 l 1
 288.072265625 649.150390625 l 1
EndSplineSet
Validated: 5
EndChar

StartChar: ocircumflex
Encoding: 244 244 152
Width: 352
GlyphClass: 1
Flags: W
LayerCount: 2
Fore
SplineSet
223.418945312 507.205078125 m 1
 223.127929688 507.038085938 l 1
 306.657226562 507.204101562 l 1
 306.657226562 48.3125 l 1
 222.961914062 -0.0009765625 l 1
 139.224609375 -0.0009765625 l 1
 222.961914062 48.3125 l 1
 222.961914062 506.955078125 l 1
 139.681640625 458.891601562 l 1
 139.224609375 458.891601562 l 1
 139.224609375 0 l 1
 55.529296875 0.125 l 1
 55.529296875 458.891601562 l 1
 55.986328125 458.891601562 l 1
 139.681640625 507.205078125 l 1
 223.418945312 507.205078125 l 1
176.145507812 629.608398438 m 1
 127.416992188 576.596679688 l 1
 30.0009765625 576.596679688 l 1
 127.416992188 682.578125 l 1
 224.833007812 682.578125 l 1
 322.249023438 576.596679688 l 1
 224.833007812 576.596679688 l 1
 176.145507812 629.608398438 l 1
EndSplineSet
Validated: 1
EndChar

StartChar: otilde
Encoding: 245 245 153
Width: 407
GlyphClass: 1
Flags: W
LayerCount: 2
Fore
SplineSet
245.62109375 507.205078125 m 1
 245.330078125 507.080078125 l 1
 328.859375 507.205078125 l 1
 328.859375 48.3544921875 l 1
 245.1640625 0 l 1
 161.426757812 -0 l 1
 245.1640625 48.3544921875 l 1
 245.1640625 506.955078125 l 1
 161.883789062 458.891601562 l 1
 161.426757812 458.891601562 l 1
 161.426757812 -0 l 1
 77.7314453125 0.166015625 l 1
 77.7314453125 458.891601562 l 1
 78.1884765625 458.891601562 l 1
 161.883789062 507.205078125 l 1
 245.62109375 507.205078125 l 1
182.0078125 618.923828125 m 1
 88 590.858398438 l 1
 29.9990234375 645.657226562 l 1
 106.54296875 668.400390625 l 1
 139.9296875 660.458984375 l 1
 139.971679688 660.416992188 l 1
 171.8203125 652.849609375 l 1
 171.9453125 652.766601562 l 1
 223.501953125 640.500976562 l 1
 224.000976562 640.043945312 l 1
 318.797851562 668.358398438 l 1
 376.798828125 613.559570312 l 1
 300.254882812 590.81640625 l 1
 267.990234375 598.466796875 l 1
 268.115234375 598.383789062 l 1
 216.392578125 610.649414062 l 1
 216.309570312 610.774414062 l 1
 182.0078125 618.923828125 l 1
EndSplineSet
Validated: 5
EndChar

StartChar: oslash
Encoding: 248 248 154
Width: 593
GlyphClass: 1
Flags: W
LayerCount: 2
Fore
SplineSet
562.775390625 509.200195312 m 1
 431.72265625 371.370117188 l 1
 431.72265625 48.3125 l 1
 348.02734375 -0.0009765625 l 1
 264.33203125 -0.0009765625 l 1
 348.02734375 48.3125 l 1
 348.02734375 283.350585938 l 1
 264.33203125 195.331054688 l 1
 264.33203125 -0 l 1
 180.63671875 0.166015625 l 1
 180.63671875 107.311523438 l 1
 80.517578125 2.037109375 l 1
 30.0009765625 2.037109375 l 1
 180.594726562 160.40625 l 1
 180.594726562 458.891601562 l 1
 181.051757812 458.891601562 l 1
 264.7890625 507.205078125 l 1
 348.484375 507.205078125 l 1
 348.193359375 507.080078125 l 1
 431.72265625 507.24609375 l 1
 431.72265625 424.506835938 l 1
 512.299804688 509.200195312 l 1
 562.775390625 509.200195312 l 1
264.331054688 248.466796875 m 1
 348.026367188 336.486328125 l 1
 348.026367188 506.954101562 l 1
 264.788085938 458.890625 l 1
 264.331054688 458.890625 l 1
 264.331054688 248.466796875 l 1
EndSplineSet
Validated: 1
EndChar

StartChar: ugrave
Encoding: 249 249 155
Width: 353
GlyphClass: 1
Flags: W
LayerCount: 2
Fore
SplineSet
239.301757812 410.662109375 m 1
 322.872070312 362.348632812 l 1
 322.872070312 -0 l 1
 322.456054688 0.2490234375 l 1
 239.217773438 0.2490234375 l 1
 71.9931640625 96.54296875 l 1
 72.03515625 507.205078125 l 1
 155.606445312 458.891601562 l 1
 155.606445312 96.54296875 l 1
 271.067382812 30.060546875 l 1
 239.21875 48.521484375 l 1
 239.301757812 410.662109375 l 1
281.2109375 569.23828125 m 1
 155.60546875 569.23828125 l 1
 30 641.75 l 1
 155.60546875 641.75 l 1
 281.2109375 569.23828125 l 1
EndSplineSet
Validated: 1
EndChar

StartChar: uacute
Encoding: 250 250 156
Width: 353
GlyphClass: 1
Flags: W
LayerCount: 2
Fore
SplineSet
197.30859375 410.620117188 m 1
 280.877929688 362.348632812 l 1
 280.877929688 0 l 1
 280.50390625 0.2080078125 l 1
 197.265625 0.2080078125 l 1
 29.9990234375 96.54296875 l 1
 30.041015625 507.163085938 l 1
 113.612304688 458.891601562 l 1
 113.612304688 96.54296875 l 1
 229.489257812 29.810546875 l 1
 197.266601562 48.5205078125 l 1
 197.30859375 410.620117188 l 1
322.87109375 639.75390625 m 1
 197.265625 567.2421875 l 1
 71.66015625 567.2421875 l 1
 197.265625 639.75390625 l 1
 322.87109375 639.75390625 l 1
EndSplineSet
Validated: 1
EndChar

StartChar: ucircumflex
Encoding: 251 251 157
Width: 364
GlyphClass: 1
Flags: W
LayerCount: 2
Fore
SplineSet
187.745117188 623.040039062 m 1
 139.016601562 570.028320312 l 1
 41.6005859375 570.028320312 l 1
 139.016601562 676.009765625 l 1
 236.432617188 676.009765625 l 1
 333.848632812 570.028320312 l 1
 236.432617188 570.028320312 l 1
 187.745117188 623.040039062 l 1
280.87890625 362.348632812 m 1
 280.876953125 0 l 1
 280.502929688 0.2080078125 l 1
 197.264648438 0.2080078125 l 1
 29.998046875 96.54296875 l 1
 30.0400390625 507.163085938 l 1
 113.611328125 458.891601562 l 1
 113.611328125 96.54296875 l 1
 229.114257812 30.0185546875 l 1
 197.265625 48.5205078125 l 1
 197.307617188 410.620117188 l 1
 280.87890625 362.348632812 l 1
EndSplineSet
Validated: 1
EndChar

StartChar: yacute
Encoding: 253 253 158
Width: 337
GlyphClass: 1
Flags: W
LayerCount: 2
Fore
SplineSet
307.447265625 913.251953125 m 1
 181.841796875 840.740234375 l 1
 56.1943359375 840.740234375 l 1
 181.841796875 913.251953125 l 1
 307.447265625 913.251953125 l 1
198.223632812 233.583007812 m 1
 199.09765625 693.265625 l 1
 283.083984375 741.787109375 l 1
 282.251953125 232.627929688 l 1
 199.055664062 232.627929688 l 1
 198.598632812 48.5224609375 l 1
 114.653320312 0.0009765625 l 1
 115.02734375 233.500976562 l 1
 114.403320312 233.500976562 l 1
 30.375 281.98046875 l 1
 30.0009765625 743.491210938 l 1
 113.946289062 694.969726562 l 1
 114.403320312 281.979492188 l 1
 198.223632812 233.583007812 l 1
EndSplineSet
Validated: 1
EndChar

StartChar: ydieresis
Encoding: 255 255 159
Width: 340
GlyphClass: 1
Flags: W
LayerCount: 2
Fore
SplineSet
132.405273438 825.772460938 m 1
 30 825.772460938 l 1
 30 928.177734375 l 1
 132.405273438 928.177734375 l 1
 132.405273438 825.772460938 l 1
310.440429688 825.772460938 m 1
 208.03515625 825.772460938 l 1
 208.03515625 928.177734375 l 1
 310.440429688 928.177734375 l 1
 310.440429688 825.772460938 l 1
218.1796875 233.583007812 m 1
 219.05078125 693.263671875 l 1
 302.99609375 741.78515625 l 1
 302.165039062 232.584960938 l 1
 218.96875 232.584960938 l 1
 218.552734375 48.4794921875 l 1
 134.56640625 -0 l 1
 134.982421875 233.458007812 l 1
 134.317382812 233.458007812 l 1
 50.2890625 281.979492188 l 1
 49.9150390625 743.44921875 l 1
 133.901367188 694.969726562 l 1
 134.317382812 281.979492188 l 1
 218.1796875 233.583007812 l 1
EndSplineSet
Validated: 1
EndChar

StartChar: Lslash
Encoding: 321 321 160
Width: 399
GlyphClass: 1
Flags: W
LayerCount: 2
Fore
SplineSet
231.942382812 76.0869140625 m 1
 273.39453125 100.036132812 l 1
 360.083984375 49.9765625 l 1
 273.26953125 0 l 1
 230.1953125 -0 l 1
 229.946289062 0.166015625 l 1
 145.501953125 0.166015625 l 1
 75.9423828125 50.142578125 l 1
 145.376953125 50.142578125 l 1
 145.376953125 302.892578125 l 1
 56.6923828125 227.720703125 l 1
 30 284.266601562 l 1
 145.377929688 382.056640625 l 1
 145.377929688 674.6796875 l 1
 102.095703125 699.916992188 l 1
 188.66015625 699.916992188 l 1
 231.942382812 674.6796875 l 1
 231.942382812 455.44140625 l 1
 342.497070312 549.115234375 l 1
 369.231445312 492.569335938 l 1
 231.942382812 376.235351562 l 1
 231.942382812 76.0869140625 l 1
EndSplineSet
Validated: 1
EndChar

StartChar: lslash
Encoding: 322 322 161
Width: 356
GlyphClass: 1
Flags: W
LayerCount: 2
Fore
SplineSet
285.411132812 48.146484375 m 1
 326.19921875 24.07421875 l 1
 284.497070312 0.0009765625 l 1
 201.591796875 0.0009765625 l 1
 121.637695312 0.208984375 l 1
 121.637695312 277.947265625 l 1
 56.693359375 222.7734375 l 1
 30.0009765625 279.27734375 l 1
 121.637695312 357.193359375 l 1
 121.637695312 699.833984375 l 1
 205.041992188 699.833984375 l 1
 205.041992188 428.125 l 1
 269.529296875 482.923828125 l 1
 296.221679688 426.377929688 l 1
 205.041992188 348.876953125 l 1
 205.041992188 1.9951171875 l 1
 285.411132812 48.146484375 l 1
EndSplineSet
Validated: 1
EndChar

StartChar: OE
Encoding: 338 338 162
Width: 449
GlyphClass: 1
Flags: W
LayerCount: 2
Fore
SplineSet
203.00390625 699.168945312 m 1
 116.522460938 649.234375 l 1
 116.522460938 0 l 1
 30 0.2080078125 l 1
 30 649.234375 l 1
 116.522460938 699.168945312 l 1
 203.00390625 699.168945312 l 1
376.0078125 26.984375 m 1
 419.083007812 1.9970703125 l 1
 289.319335938 1.9970703125 l 1
 247.94921875 25.9453125 l 1
 203.00390625 0.0009765625 l 1
 116.522460938 0.0009765625 l 1
 203.00390625 49.935546875 l 1
 203.00390625 699.169921875 l 1
 332.434570312 699.169921875 l 1
 418.625 649.401367188 l 1
 332.434570312 649.401367188 l 1
 289.526367188 674.139648438 l 1
 289.526367188 399.228515625 l 1
 316.094726562 399.228515625 l 1
 402.28515625 349.459960938 l 1
 289.526367188 349.459960938 l 1
 289.526367188 51.9306640625 l 1
 332.434570312 26.984375 l 1
 376.0078125 26.984375 l 1
EndSplineSet
Validated: 5
EndChar

StartChar: oe
Encoding: 339 339 163
Width: 480
GlyphClass: 1
Flags: W
LayerCount: 2
Fore
SplineSet
281.12890625 507.205078125 m 1
 281.129882812 215.163085938 l 1
 281.37890625 -0.0009765625 l 1
 239.21875 24.1142578125 l 1
 197.43359375 -0.0009765625 l 1
 113.696289062 -0.0009765625 l 1
 197.267578125 48.2294921875 l 1
 197.225585938 265.638671875 l 1
 197.43359375 427.250976562 l 1
 197.43359375 506.955078125 l 1
 114.153320312 458.891601562 l 1
 113.696289062 458.891601562 l 1
 113.696289062 0 l 1
 30.0009765625 0.125 l 1
 30.0009765625 458.891601562 l 1
 30.4580078125 458.891601562 l 1
 114.153320312 507.205078125 l 1
 197.890625 507.205078125 l 1
 197.599609375 507.0390625 l 1
 281.12890625 507.205078125 l 1
281.37890625 -0.0009765625 m 1
 364.534179688 48.3125 l 1
 448.229492188 48.3125 l 1
 364.534179688 -0.0009765625 l 1
 281.37890625 -0.0009765625 l 1
449.768554688 458.599609375 m 1
 449.810546875 216.6171875 l 1
 366.15625 216.6171875 l 1
 366.15625 217.32421875 l 1
 365.241210938 217.32421875 l 1
 281.586914062 265.637695312 l 1
 365.241210938 265.637695312 l 1
 366.15625 265.138671875 l 1
 366.15625 449.369140625 l 1
 366.114257812 458.723632812 l 1
 282.418945312 507.037109375 l 1
 366.114257812 507.037109375 l 1
 441.494140625 463.505859375 l 1
 449.768554688 458.724609375 l 1
 449.768554688 458.599609375 l 1
EndSplineSet
Validated: 5
EndChar

StartChar: Scaron
Encoding: 352 352 164
Width: 362
GlyphClass: 1
Flags: W
LayerCount: 2
Fore
SplineSet
331.4375 649.857421875 m 1
 244.873046875 649.857421875 l 1
 158.890625 699.791992188 l 1
 244.873046875 699.791992188 l 1
 331.4375 649.857421875 l 1
331.4375 249.672851562 m 1
 331.645507812 49.7255859375 l 1
 244.665039062 -0.0009765625 l 1
 244.665039062 261.563476562 l 1
 71.91015625 361.973632812 l 1
 71.91015625 650.064453125 l 1
 158.890625 699.791015625 l 1
 158.890625 411.326171875 l 1
 331.4375 311.083007812 l 1
 331.4375 249.672851562 l 1
72.1181640625 49.93359375 m 1
 158.640625 49.93359375 l 1
 244.665039062 -0.0009765625 l 1
 158.640625 -0.0009765625 l 1
 72.1181640625 49.93359375 l 1
224.83203125 746.690429688 m 1
 127.416015625 746.690429688 l 1
 30 852.671875 l 1
 127.416015625 852.671875 l 1
 176.14453125 799.702148438 l 1
 224.83203125 852.671875 l 1
 322.248046875 852.671875 l 1
 224.83203125 746.690429688 l 1
EndSplineSet
Validated: 5
EndChar

StartChar: scaron
Encoding: 353 353 165
Width: 352
GlyphClass: 1
Flags: W
LayerCount: 2
Fore
SplineSet
224.833007812 593.977539062 m 1
 127.416992188 593.977539062 l 1
 30.0009765625 699.958984375 l 1
 127.416992188 699.958984375 l 1
 176.145507812 646.989257812 l 1
 224.833007812 699.958984375 l 1
 322.249023438 699.958984375 l 1
 224.833007812 593.977539062 l 1
30.125 48.3134765625 m 1
 113.779296875 48.3134765625 l 1
 196.934570312 0 l 1
 113.779296875 0 l 1
 30.125 48.3134765625 l 1
322.125 458.891601562 m 1
 238.470703125 458.891601562 l 1
 155.357421875 507.205078125 l 1
 238.470703125 507.205078125 l 1
 322.125 458.891601562 l 1
71.703125 458.891601562 m 1
 155.358398438 507.205078125 l 1
 155.067382812 314.202148438 l 1
 270.3203125 247.469726562 l 1
 280.58984375 241.524414062 l 1
 280.58984375 48.3134765625 l 1
 196.935546875 -0 l 1
 197.184570312 176.372070312 l 1
 196.893554688 193.2109375 l 1
 186.790039062 199.073242188 l 1
 71.703125 265.680664062 l 1
 71.703125 458.891601562 l 1
EndSplineSet
Validated: 5
EndChar

StartChar: Ydieresis
Encoding: 376 376 166
Width: 340
GlyphClass: 1
Flags: W
LayerCount: 2
Fore
SplineSet
132.405273438 734.966796875 m 1
 30 734.966796875 l 1
 30 837.372070312 l 1
 132.405273438 837.372070312 l 1
 132.405273438 734.966796875 l 1
310.440429688 734.966796875 m 1
 208.03515625 734.966796875 l 1
 208.03515625 837.372070312 l 1
 310.440429688 837.372070312 l 1
 310.440429688 734.966796875 l 1
213.107421875 350.998046875 m 1
 214.022460938 650.896484375 l 1
 300.544921875 700.9140625 l 1
 299.713867188 349.999023438 l 1
 213.939453125 349.999023438 l 1
 213.024414062 49.9755859375 l 1
 126.501953125 -0.0009765625 l 1
 127.333007812 350.9140625 l 1
 126.66796875 350.9140625 l 1
 40.0615234375 400.890625 l 1
 39.6875 702.661132812 l 1
 126.251953125 652.643554688 l 1
 126.66796875 400.891601562 l 1
 213.107421875 350.998046875 l 1
EndSplineSet
Validated: 1
EndChar

StartChar: Zcaron
Encoding: 381 381 167
Width: 394
GlyphClass: 1
Flags: W
LayerCount: 2
Fore
SplineSet
364.284179688 48.396484375 m 1
 280.46484375 0.125 l 1
 242.337890625 0.125 l 1
 242.50390625 0 l 1
 155.274414062 -0 l 1
 71.703125 48.271484375 l 1
 72.41015625 48.271484375 l 1
 72.3271484375 290.3359375 l 1
 72.3271484375 290.418945312 l 1
 72.53515625 290.418945312 l 1
 155.149414062 338.108398438 l 1
 114.154296875 362.223632812 l 1
 155.939453125 386.837890625 l 1
 197.392578125 362.514648438 l 1
 239.510742188 386.837890625 l 1
 238.346679688 386.837890625 l 1
 238.346679688 651.89453125 l 1
 218.47265625 663.370117188 l 1
 215.395507812 661.790039062 l 1
 113.696289062 603.08203125 l 1
 30.0009765625 651.395507812 l 1
 113.821289062 699.666992188 l 1
 239.01171875 699.791992188 l 1
 321.875976562 651.520507812 l 1
 321.958984375 386.837890625 l 1
 323.123046875 386.837890625 l 1
 239.510742188 338.56640625 l 1
 238.845703125 338.192382812 l 1
 280.672851562 313.620117188 l 1
 238.346679688 289.172851562 l 1
 196.51953125 313.745117188 l 1
 155.939453125 290.336914062 l 1
 155.939453125 47.8984375 l 1
 175.979492188 36.2978515625 l 1
 176.104492188 36.380859375 l 1
 176.0625 36.380859375 l 1
 177.2265625 37.0458984375 l 1
 177.268554688 37.0458984375 l 1
 280.588867188 96.7099609375 l 1
 364.284179688 48.396484375 l 1
245.9140625 746.692382812 m 1
 148.498046875 746.692382812 l 1
 51.08203125 852.673828125 l 1
 148.498046875 852.673828125 l 1
 197.2265625 799.704101562 l 1
 245.9140625 852.673828125 l 1
 343.372070312 852.673828125 l 1
 245.9140625 746.692382812 l 1
EndSplineSet
Validated: 1
EndChar

StartChar: zcaron
Encoding: 382 382 168
Width: 380
GlyphClass: 1
Flags: W
LayerCount: 2
Fore
SplineSet
270.193359375 92.509765625 m 1
 350.35546875 46.193359375 l 1
 270.110351562 0.0009765625 l 1
 150.2421875 0.0009765625 l 1
 70.1640625 46.193359375 l 1
 70.1640625 46.2353515625 l 1
 71.0791015625 207.805664062 l 1
 71.453125 207.805664062 l 1
 150.741210938 253.583007812 l 1
 111.450195312 276.700195312 l 1
 151.489257812 300.274414062 l 1
 191.196289062 276.94921875 l 1
 230.4453125 299.567382812 l 1
 229.198242188 299.567382812 l 1
 229.447265625 461.553710938 l 1
 210.23828125 472.655273438 l 1
 110.161132812 414.862304688 l 1
 30 461.1796875 l 1
 110.286132812 507.372070312 l 1
 230.154296875 507.372070312 l 1
 310.232421875 461.1796875 l 1
 309.276367188 299.567382812 l 1
 310.482421875 299.567382812 l 1
 231.568359375 254.040039062 l 1
 230.903320312 253.624023438 l 1
 270.984375 230.090820312 l 1
 230.446289062 206.682617188 l 1
 190.407226562 230.256835938 l 1
 151.490234375 207.8046875 l 1
 151.157226562 207.8046875 l 1
 150.94921875 45.818359375 l 1
 170.116210938 34.716796875 l 1
 270.193359375 92.509765625 l 1
238.885742188 594.061523438 m 1
 141.469726562 594.061523438 l 1
 44.0537109375 700.04296875 l 1
 141.469726562 700.04296875 l 1
 190.198242188 647.073242188 l 1
 238.885742188 700.04296875 l 1
 336.301757812 700.04296875 l 1
 238.885742188 594.061523438 l 1
EndSplineSet
Validated: 1
EndChar

StartChar: circumflex
Encoding: 710 710 169
Width: 352
GlyphClass: 1
Flags: W
LayerCount: 2
Fore
SplineSet
322.249023438 331 m 1
 224.833007812 331 l 1
 176.145507812 384.01171875 l 1
 127.416992188 331 l 1
 30.0009765625 331 l 1
 127.416992188 436.981445312 l 1
 224.833007812 436.981445312 l 1
 322.249023438 331 l 1
EndSplineSet
Validated: 1
EndChar

StartChar: ilde
Encoding: 732 732 170
Width: 407
GlyphClass: 1
Flags: W
LayerCount: 2
Fore
SplineSet
376.798828125 379.743164062 m 1
 300.25390625 356.999023438 l 1
 267.989257812 364.649414062 l 1
 268.114257812 364.56640625 l 1
 216.391601562 376.83203125 l 1
 216.30859375 376.95703125 l 1
 182.006835938 385.106445312 l 1
 88 357.041992188 l 1
 29.9990234375 411.799804688 l 1
 106.54296875 434.583984375 l 1
 139.9296875 426.642578125 l 1
 139.971679688 426.600585938 l 1
 171.8203125 419.033203125 l 1
 171.9453125 418.950195312 l 1
 223.501953125 406.684570312 l 1
 223.958984375 406.227539062 l 1
 318.797851562 434.541992188 l 1
 376.798828125 379.743164062 l 1
EndSplineSet
Validated: 1
EndChar

StartChar: quoteleftreversed
Encoding: 8219 8219 171
Width: 205
GlyphClass: 1
Flags: W
LayerCount: 2
Fore
SplineSet
130.077148438 103.029296875 m 1
 174.7734375 0 l 1
 107.500976562 0 l 1
 30 103.029296875 l 1
 30 203.106445312 l 1
 130.077148438 203.106445312 l 1
 130.077148438 103.029296875 l 1
EndSplineSet
Validated: 1
EndChar

StartChar: quotedblleft
Encoding: 8220 8220 172
Width: 304
GlyphClass: 1
Flags: W
LayerCount: 2
Fore
SplineSet
86.5009765625 658.106445312 m 1
 153.7734375 658.106445312 l 1
 109.077148438 555.077148438 l 1
 109.077148438 455 l 1
 9 455 l 1
 9 555.077148438 l 1
 86.5009765625 658.106445312 l 1
223.166015625 659.561523438 m 1
 290.438476562 659.561523438 l 1
 245.784179688 556.532226562 l 1
 245.784179688 456.455078125 l 1
 145.665039062 456.455078125 l 1
 145.665039062 556.532226562 l 1
 223.166015625 659.561523438 l 1
EndSplineSet
Validated: 1
EndChar

StartChar: quotedblright
Encoding: 8221 8221 173
Width: 341
GlyphClass: 1
Flags: W
LayerCount: 2
Fore
SplineSet
211.361328125 718.561523438 m 1
 311.438476562 718.561523438 l 1
 311.438476562 618.484375 l 1
 233.9375 515.455078125 l 1
 166.70703125 515.455078125 l 1
 211.361328125 618.484375 l 1
 211.361328125 718.561523438 l 1
174.7734375 717.106445312 m 1
 174.7734375 616.987304688 l 1
 97.2724609375 514 l 1
 30 514 l 1
 74.654296875 616.987304688 l 1
 74.654296875 717.106445312 l 1
 174.7734375 717.106445312 l 1
EndSplineSet
Validated: 1
EndChar

StartChar: quotedblbase
Encoding: 8222 8222 174
Width: 341
GlyphClass: 1
Flags: W
LayerCount: 2
Fore
SplineSet
211.361328125 761.561523438 m 1
 311.438476562 761.561523438 l 1
 311.438476562 661.484375 l 1
 233.9375 558.455078125 l 1
 166.665039062 558.455078125 l 1
 211.361328125 661.484375 l 1
 211.361328125 761.561523438 l 1
174.7734375 760.106445312 m 1
 174.7734375 659.987304688 l 1
 97.2724609375 557 l 1
 30 557 l 1
 74.654296875 659.987304688 l 1
 74.654296875 760.106445312 l 1
 174.7734375 760.106445312 l 1
EndSplineSet
Validated: 1
EndChar

StartChar: bullet
Encoding: 8226 8226 175
Width: 253
GlyphClass: 1
Flags: W
LayerCount: 2
Fore
SplineSet
222.586914062 0 m 1
 30 -0 l 1
 30 192.586914062 l 1
 222.586914062 192.586914062 l 1
 222.586914062 0 l 1
EndSplineSet
Validated: 1
EndChar

StartChar: perthousand
Encoding: 8240 8240 176
Width: 1062
GlyphClass: 1
Flags: W
LayerCount: 2
Fore
SplineSet
471.0546875 699.833984375 m 1
 554.625976562 699.833984375 l 1
 316.303710938 0 l 1
 232.732421875 0 l 1
 471.0546875 699.833984375 l 1
281.12890625 699.833984375 m 1
 281.12890625 386.462890625 l 1
 197.43359375 338.149414062 l 1
 113.696289062 338.149414062 l 1
 197.43359375 386.462890625 l 1
 197.43359375 699.583984375 l 1
 114.1953125 651.520507812 l 1
 113.696289062 651.520507812 l 1
 113.696289062 338.150390625 l 1
 30.0009765625 338.275390625 l 1
 30.0009765625 651.520507812 l 1
 30.4580078125 651.520507812 l 1
 114.1953125 699.833984375 l 1
 197.890625 699.833984375 l 1
 197.599609375 699.66796875 l 1
 281.12890625 699.833984375 l 1
670.751953125 363.719726562 m 1
 670.4609375 363.553710938 l 1
 753.990234375 363.719726562 l 1
 753.990234375 50.349609375 l 1
 670.294921875 1.9951171875 l 1
 586.557617188 1.9951171875 l 1
 670.294921875 50.349609375 l 1
 670.294921875 363.428710938 l 1
 587.014648438 315.365234375 l 1
 586.557617188 315.365234375 l 1
 586.557617188 1.9951171875 l 1
 502.862304688 2.1611328125 l 1
 502.862304688 315.365234375 l 1
 503.319335938 315.365234375 l 1
 587.014648438 363.719726562 l 1
 670.751953125 363.719726562 l 1
948.823242188 363.553710938 m 1
 1032.3515625 363.719726562 l 1
 1032.3515625 50.349609375 l 1
 948.614257812 1.9951171875 l 1
 864.918945312 1.9951171875 l 1
 948.614257812 50.349609375 l 1
 948.614257812 363.428710938 l 1
 865.375976562 315.365234375 l 1
 864.918945312 315.365234375 l 1
 864.918945312 1.9951171875 l 1
 781.223632812 2.1611328125 l 1
 781.223632812 315.365234375 l 1
 781.639648438 315.365234375 l 1
 865.376953125 363.719726562 l 1
 949.072265625 363.719726562 l 1
 948.823242188 363.553710938 l 1
EndSplineSet
Validated: 5
EndChar

StartChar: guilsinglleft
Encoding: 8249 8249 177
Width: 209
GlyphClass: 1
Flags: W
LayerCount: 2
Fore
SplineSet
178.930664062 410.745117188 m 1
 178.930664062 273.830078125 l 1
 104.46484375 205.393554688 l 1
 178.930664062 136.915039062 l 1
 178.930664062 0 l 1
 30 136.915039062 l 1
 30 273.830078125 l 1
 178.930664062 410.745117188 l 1
EndSplineSet
Validated: 1
EndChar

StartChar: guilsinglright
Encoding: 8250 8250 178
Width: 209
GlyphClass: 1
Flags: W
LayerCount: 2
Fore
SplineSet
30 0 m 1
 30 136.915039062 l 1
 104.465820312 205.393554688 l 1
 30 273.830078125 l 1
 30 410.745117188 l 1
 178.930664062 273.830078125 l 1
 178.930664062 136.915039062 l 1
 30 0 l 1
EndSplineSet
Validated: 1
EndChar

StartChar: trademark
Encoding: 8482 8482 179
Width: 657
GlyphClass: 1
Flags: W
LayerCount: 2
Fore
SplineSet
78.916015625 412.283203125 m 1
 256.9921875 412.284179688 l 1
 305.887695312 384.135742188 l 1
 255.537109375 355.073242188 l 1
 199.366210938 387.544921875 l 1
 193.461914062 384.135742188 l 1
 193.461914062 0.2919921875 l 1
 143.194335938 0.2919921875 l 1
 143.194335938 384.135742188 l 1
 143.111328125 384.135742188 l 1
 136.875 387.7109375 l 1
 80.37109375 355.072265625 l 1
 30.0205078125 384.134765625 l 1
 78.916015625 412.283203125 l 1
627.282226562 380.685546875 m 1
 627.366210938 0.083984375 l 1
 572.109375 0.0009765625 l 1
 571.984375 412.6171875 l 1
 627.282226562 380.685546875 l 1
489.370117188 396.651367188 m 1
 517.018554688 412.6171875 l 1
 571.984375 412.6171875 l 1
 517.018554688 380.685546875 l 1
 517.143554688 0.083984375 l 1
 461.845703125 0.0009765625 l 1
 461.720703125 412.6171875 l 1
 489.370117188 396.651367188 l 1
378.814453125 396.485351562 m 1
 406.75390625 412.6171875 l 1
 461.719726562 412.6171875 l 1
 406.130859375 380.685546875 l 1
 406.255859375 0.1259765625 l 1
 350.958007812 0.0009765625 l 1
 350.833007812 412.6171875 l 1
 378.814453125 396.485351562 l 1
EndSplineSet
Validated: 5
EndChar
